<?xml version="1.0" encoding="utf-8" standalone="no"?>
<!DOCTYPE svg PUBLIC "-//W3C//DTD SVG 1.1//EN"
  "http://www.w3.org/Graphics/SVG/1.1/DTD/svg11.dtd">
<svg xmlns:xlink="http://www.w3.org/1999/xlink" width="460.8pt" height="345.6pt" viewBox="0 0 460.8 345.6" xmlns="http://www.w3.org/2000/svg" version="1.1">
 <metadata>
  <rdf:RDF xmlns:dc="http://purl.org/dc/elements/1.1/" xmlns:cc="http://creativecommons.org/ns#" xmlns:rdf="http://www.w3.org/1999/02/22-rdf-syntax-ns#">
   <cc:Work>
    <dc:type rdf:resource="http://purl.org/dc/dcmitype/StillImage"/>
    <dc:date>2026-03-03T12:38:32.272512</dc:date>
    <dc:format>image/svg+xml</dc:format>
    <dc:creator>
     <cc:Agent>
      <dc:title>Matplotlib v3.10.1, https://matplotlib.org/</dc:title>
     </cc:Agent>
    </dc:creator>
   </cc:Work>
  </rdf:RDF>
 </metadata>
 <defs>
  <style type="text/css">*{stroke-linejoin: round; stroke-linecap: butt}</style>
 </defs>
 <g id="figure_1">
  <g id="patch_1">
   <path d="M 0 345.6 
L 460.8 345.6 
L 460.8 0 
L 0 0 
z
" style="fill: #ffffff"/>
  </g>
  <g id="axes_1">
   <g id="patch_2">
    <path d="M 41.94 317.72 
L 423.045 317.72 
L 423.045 10.8 
L 41.94 10.8 
z
" style="fill: #ffffff"/>
   </g>
   <g id="matplotlib.axis_1">
    <g id="xtick_1">
     <g id="line2d_1">
      <path d="M 41.94 317.72 
L 41.94 10.8 
" clip-path="url(#p3d6422c292)" style="fill: none; stroke: #b0b0b0; stroke-width: 0.8; stroke-linecap: square"/>
     </g>
     <g id="line2d_2">
      <defs>
       <path id="m09ac2eb214" d="M 0 0 
L 0 3.5 
" style="stroke: #000000; stroke-width: 0.8"/>
      </defs>
      <g>
       <use xlink:href="#m09ac2eb214" x="41.94" y="317.72" style="stroke: #000000; stroke-width: 0.8"/>
      </g>
     </g>
     <g id="text_1">
      <!-- SepalLength -->
      <g transform="translate(10.815 332.318437) scale(0.1 -0.1)">
       <defs>
        <path id="DejaVuSans-53" d="M 3425 4513 
L 3425 3897 
Q 3066 4069 2747 4153 
Q 2428 4238 2131 4238 
Q 1616 4238 1336 4038 
Q 1056 3838 1056 3469 
Q 1056 3159 1242 3001 
Q 1428 2844 1947 2747 
L 2328 2669 
Q 3034 2534 3370 2195 
Q 3706 1856 3706 1288 
Q 3706 609 3251 259 
Q 2797 -91 1919 -91 
Q 1588 -91 1214 -16 
Q 841 59 441 206 
L 441 856 
Q 825 641 1194 531 
Q 1563 422 1919 422 
Q 2459 422 2753 634 
Q 3047 847 3047 1241 
Q 3047 1584 2836 1778 
Q 2625 1972 2144 2069 
L 1759 2144 
Q 1053 2284 737 2584 
Q 422 2884 422 3419 
Q 422 4038 858 4394 
Q 1294 4750 2059 4750 
Q 2388 4750 2728 4690 
Q 3069 4631 3425 4513 
z
" transform="scale(0.015625)"/>
        <path id="DejaVuSans-65" d="M 3597 1894 
L 3597 1613 
L 953 1613 
Q 991 1019 1311 708 
Q 1631 397 2203 397 
Q 2534 397 2845 478 
Q 3156 559 3463 722 
L 3463 178 
Q 3153 47 2828 -22 
Q 2503 -91 2169 -91 
Q 1331 -91 842 396 
Q 353 884 353 1716 
Q 353 2575 817 3079 
Q 1281 3584 2069 3584 
Q 2775 3584 3186 3129 
Q 3597 2675 3597 1894 
z
M 3022 2063 
Q 3016 2534 2758 2815 
Q 2500 3097 2075 3097 
Q 1594 3097 1305 2825 
Q 1016 2553 972 2059 
L 3022 2063 
z
" transform="scale(0.015625)"/>
        <path id="DejaVuSans-70" d="M 1159 525 
L 1159 -1331 
L 581 -1331 
L 581 3500 
L 1159 3500 
L 1159 2969 
Q 1341 3281 1617 3432 
Q 1894 3584 2278 3584 
Q 2916 3584 3314 3078 
Q 3713 2572 3713 1747 
Q 3713 922 3314 415 
Q 2916 -91 2278 -91 
Q 1894 -91 1617 61 
Q 1341 213 1159 525 
z
M 3116 1747 
Q 3116 2381 2855 2742 
Q 2594 3103 2138 3103 
Q 1681 3103 1420 2742 
Q 1159 2381 1159 1747 
Q 1159 1113 1420 752 
Q 1681 391 2138 391 
Q 2594 391 2855 752 
Q 3116 1113 3116 1747 
z
" transform="scale(0.015625)"/>
        <path id="DejaVuSans-61" d="M 2194 1759 
Q 1497 1759 1228 1600 
Q 959 1441 959 1056 
Q 959 750 1161 570 
Q 1363 391 1709 391 
Q 2188 391 2477 730 
Q 2766 1069 2766 1631 
L 2766 1759 
L 2194 1759 
z
M 3341 1997 
L 3341 0 
L 2766 0 
L 2766 531 
Q 2569 213 2275 61 
Q 1981 -91 1556 -91 
Q 1019 -91 701 211 
Q 384 513 384 1019 
Q 384 1609 779 1909 
Q 1175 2209 1959 2209 
L 2766 2209 
L 2766 2266 
Q 2766 2663 2505 2880 
Q 2244 3097 1772 3097 
Q 1472 3097 1187 3025 
Q 903 2953 641 2809 
L 641 3341 
Q 956 3463 1253 3523 
Q 1550 3584 1831 3584 
Q 2591 3584 2966 3190 
Q 3341 2797 3341 1997 
z
" transform="scale(0.015625)"/>
        <path id="DejaVuSans-6c" d="M 603 4863 
L 1178 4863 
L 1178 0 
L 603 0 
L 603 4863 
z
" transform="scale(0.015625)"/>
        <path id="DejaVuSans-4c" d="M 628 4666 
L 1259 4666 
L 1259 531 
L 3531 531 
L 3531 0 
L 628 0 
L 628 4666 
z
" transform="scale(0.015625)"/>
        <path id="DejaVuSans-6e" d="M 3513 2113 
L 3513 0 
L 2938 0 
L 2938 2094 
Q 2938 2591 2744 2837 
Q 2550 3084 2163 3084 
Q 1697 3084 1428 2787 
Q 1159 2491 1159 1978 
L 1159 0 
L 581 0 
L 581 3500 
L 1159 3500 
L 1159 2956 
Q 1366 3272 1645 3428 
Q 1925 3584 2291 3584 
Q 2894 3584 3203 3211 
Q 3513 2838 3513 2113 
z
" transform="scale(0.015625)"/>
        <path id="DejaVuSans-67" d="M 2906 1791 
Q 2906 2416 2648 2759 
Q 2391 3103 1925 3103 
Q 1463 3103 1205 2759 
Q 947 2416 947 1791 
Q 947 1169 1205 825 
Q 1463 481 1925 481 
Q 2391 481 2648 825 
Q 2906 1169 2906 1791 
z
M 3481 434 
Q 3481 -459 3084 -895 
Q 2688 -1331 1869 -1331 
Q 1566 -1331 1297 -1286 
Q 1028 -1241 775 -1147 
L 775 -588 
Q 1028 -725 1275 -790 
Q 1522 -856 1778 -856 
Q 2344 -856 2625 -561 
Q 2906 -266 2906 331 
L 2906 616 
Q 2728 306 2450 153 
Q 2172 0 1784 0 
Q 1141 0 747 490 
Q 353 981 353 1791 
Q 353 2603 747 3093 
Q 1141 3584 1784 3584 
Q 2172 3584 2450 3431 
Q 2728 3278 2906 2969 
L 2906 3500 
L 3481 3500 
L 3481 434 
z
" transform="scale(0.015625)"/>
        <path id="DejaVuSans-74" d="M 1172 4494 
L 1172 3500 
L 2356 3500 
L 2356 3053 
L 1172 3053 
L 1172 1153 
Q 1172 725 1289 603 
Q 1406 481 1766 481 
L 2356 481 
L 2356 0 
L 1766 0 
Q 1100 0 847 248 
Q 594 497 594 1153 
L 594 3053 
L 172 3053 
L 172 3500 
L 594 3500 
L 594 4494 
L 1172 4494 
z
" transform="scale(0.015625)"/>
        <path id="DejaVuSans-68" d="M 3513 2113 
L 3513 0 
L 2938 0 
L 2938 2094 
Q 2938 2591 2744 2837 
Q 2550 3084 2163 3084 
Q 1697 3084 1428 2787 
Q 1159 2491 1159 1978 
L 1159 0 
L 581 0 
L 581 4863 
L 1159 4863 
L 1159 2956 
Q 1366 3272 1645 3428 
Q 1925 3584 2291 3584 
Q 2894 3584 3203 3211 
Q 3513 2838 3513 2113 
z
" transform="scale(0.015625)"/>
       </defs>
       <use xlink:href="#DejaVuSans-53"/>
       <use xlink:href="#DejaVuSans-65" transform="translate(63.476562 0)"/>
       <use xlink:href="#DejaVuSans-70" transform="translate(125 0)"/>
       <use xlink:href="#DejaVuSans-61" transform="translate(188.476562 0)"/>
       <use xlink:href="#DejaVuSans-6c" transform="translate(249.755859 0)"/>
       <use xlink:href="#DejaVuSans-4c" transform="translate(277.539062 0)"/>
       <use xlink:href="#DejaVuSans-65" transform="translate(331.501953 0)"/>
       <use xlink:href="#DejaVuSans-6e" transform="translate(393.025391 0)"/>
       <use xlink:href="#DejaVuSans-67" transform="translate(456.404297 0)"/>
       <use xlink:href="#DejaVuSans-74" transform="translate(519.880859 0)"/>
       <use xlink:href="#DejaVuSans-68" transform="translate(559.089844 0)"/>
      </g>
     </g>
    </g>
    <g id="xtick_2">
     <g id="line2d_3">
      <path d="M 168.975 317.72 
L 168.975 10.8 
" clip-path="url(#p3d6422c292)" style="fill: none; stroke: #b0b0b0; stroke-width: 0.8; stroke-linecap: square"/>
     </g>
     <g id="line2d_4">
      <g>
       <use xlink:href="#m09ac2eb214" x="168.975" y="317.72" style="stroke: #000000; stroke-width: 0.8"/>
      </g>
     </g>
     <g id="text_2">
      <!-- SepalWidth -->
      <g transform="translate(140.573438 332.318437) scale(0.1 -0.1)">
       <defs>
        <path id="DejaVuSans-57" d="M 213 4666 
L 850 4666 
L 1831 722 
L 2809 4666 
L 3519 4666 
L 4500 722 
L 5478 4666 
L 6119 4666 
L 4947 0 
L 4153 0 
L 3169 4050 
L 2175 0 
L 1381 0 
L 213 4666 
z
" transform="scale(0.015625)"/>
        <path id="DejaVuSans-69" d="M 603 3500 
L 1178 3500 
L 1178 0 
L 603 0 
L 603 3500 
z
M 603 4863 
L 1178 4863 
L 1178 4134 
L 603 4134 
L 603 4863 
z
" transform="scale(0.015625)"/>
        <path id="DejaVuSans-64" d="M 2906 2969 
L 2906 4863 
L 3481 4863 
L 3481 0 
L 2906 0 
L 2906 525 
Q 2725 213 2448 61 
Q 2172 -91 1784 -91 
Q 1150 -91 751 415 
Q 353 922 353 1747 
Q 353 2572 751 3078 
Q 1150 3584 1784 3584 
Q 2172 3584 2448 3432 
Q 2725 3281 2906 2969 
z
M 947 1747 
Q 947 1113 1208 752 
Q 1469 391 1925 391 
Q 2381 391 2643 752 
Q 2906 1113 2906 1747 
Q 2906 2381 2643 2742 
Q 2381 3103 1925 3103 
Q 1469 3103 1208 2742 
Q 947 2381 947 1747 
z
" transform="scale(0.015625)"/>
       </defs>
       <use xlink:href="#DejaVuSans-53"/>
       <use xlink:href="#DejaVuSans-65" transform="translate(63.476562 0)"/>
       <use xlink:href="#DejaVuSans-70" transform="translate(125 0)"/>
       <use xlink:href="#DejaVuSans-61" transform="translate(188.476562 0)"/>
       <use xlink:href="#DejaVuSans-6c" transform="translate(249.755859 0)"/>
       <use xlink:href="#DejaVuSans-57" transform="translate(277.539062 0)"/>
       <use xlink:href="#DejaVuSans-69" transform="translate(374.166016 0)"/>
       <use xlink:href="#DejaVuSans-64" transform="translate(401.949219 0)"/>
       <use xlink:href="#DejaVuSans-74" transform="translate(465.425781 0)"/>
       <use xlink:href="#DejaVuSans-68" transform="translate(504.634766 0)"/>
      </g>
     </g>
    </g>
    <g id="xtick_3">
     <g id="line2d_5">
      <path d="M 296.01 317.72 
L 296.01 10.8 
" clip-path="url(#p3d6422c292)" style="fill: none; stroke: #b0b0b0; stroke-width: 0.8; stroke-linecap: square"/>
     </g>
     <g id="line2d_6">
      <g>
       <use xlink:href="#m09ac2eb214" x="296.01" y="317.72" style="stroke: #000000; stroke-width: 0.8"/>
      </g>
     </g>
     <g id="text_3">
      <!-- PetalLength -->
      <g transform="translate(266.439688 332.318437) scale(0.1 -0.1)">
       <defs>
        <path id="DejaVuSans-50" d="M 1259 4147 
L 1259 2394 
L 2053 2394 
Q 2494 2394 2734 2622 
Q 2975 2850 2975 3272 
Q 2975 3691 2734 3919 
Q 2494 4147 2053 4147 
L 1259 4147 
z
M 628 4666 
L 2053 4666 
Q 2838 4666 3239 4311 
Q 3641 3956 3641 3272 
Q 3641 2581 3239 2228 
Q 2838 1875 2053 1875 
L 1259 1875 
L 1259 0 
L 628 0 
L 628 4666 
z
" transform="scale(0.015625)"/>
       </defs>
       <use xlink:href="#DejaVuSans-50"/>
       <use xlink:href="#DejaVuSans-65" transform="translate(56.677734 0)"/>
       <use xlink:href="#DejaVuSans-74" transform="translate(118.201172 0)"/>
       <use xlink:href="#DejaVuSans-61" transform="translate(157.410156 0)"/>
       <use xlink:href="#DejaVuSans-6c" transform="translate(218.689453 0)"/>
       <use xlink:href="#DejaVuSans-4c" transform="translate(246.472656 0)"/>
       <use xlink:href="#DejaVuSans-65" transform="translate(300.435547 0)"/>
       <use xlink:href="#DejaVuSans-6e" transform="translate(361.958984 0)"/>
       <use xlink:href="#DejaVuSans-67" transform="translate(425.337891 0)"/>
       <use xlink:href="#DejaVuSans-74" transform="translate(488.814453 0)"/>
       <use xlink:href="#DejaVuSans-68" transform="translate(528.023438 0)"/>
      </g>
     </g>
    </g>
    <g id="xtick_4">
     <g id="line2d_7">
      <path d="M 423.045 317.72 
L 423.045 10.8 
" clip-path="url(#p3d6422c292)" style="fill: none; stroke: #b0b0b0; stroke-width: 0.8; stroke-linecap: square"/>
     </g>
     <g id="line2d_8">
      <g>
       <use xlink:href="#m09ac2eb214" x="423.045" y="317.72" style="stroke: #000000; stroke-width: 0.8"/>
      </g>
     </g>
     <g id="text_4">
      <!-- PetalWidth -->
      <g transform="translate(396.198125 332.318437) scale(0.1 -0.1)">
       <use xlink:href="#DejaVuSans-50"/>
       <use xlink:href="#DejaVuSans-65" transform="translate(56.677734 0)"/>
       <use xlink:href="#DejaVuSans-74" transform="translate(118.201172 0)"/>
       <use xlink:href="#DejaVuSans-61" transform="translate(157.410156 0)"/>
       <use xlink:href="#DejaVuSans-6c" transform="translate(218.689453 0)"/>
       <use xlink:href="#DejaVuSans-57" transform="translate(246.472656 0)"/>
       <use xlink:href="#DejaVuSans-69" transform="translate(343.099609 0)"/>
       <use xlink:href="#DejaVuSans-64" transform="translate(370.882812 0)"/>
       <use xlink:href="#DejaVuSans-74" transform="translate(434.359375 0)"/>
       <use xlink:href="#DejaVuSans-68" transform="translate(473.568359 0)"/>
      </g>
     </g>
    </g>
   </g>
   <g id="matplotlib.axis_2">
    <g id="ytick_1">
     <g id="line2d_9">
      <path d="M 41.94 307.346247 
L 423.045 307.346247 
" clip-path="url(#p3d6422c292)" style="fill: none; stroke: #b0b0b0; stroke-width: 0.8; stroke-linecap: square"/>
     </g>
     <g id="line2d_10">
      <defs>
       <path id="m5827cae0c8" d="M 0 0 
L -3.5 0 
" style="stroke: #000000; stroke-width: 0.8"/>
      </defs>
      <g>
       <use xlink:href="#m5827cae0c8" x="41.94" y="307.346247" style="stroke: #000000; stroke-width: 0.8"/>
      </g>
     </g>
     <g id="text_5">
      <!-- 0 -->
      <g transform="translate(28.5775 311.145466) scale(0.1 -0.1)">
       <defs>
        <path id="DejaVuSans-30" d="M 2034 4250 
Q 1547 4250 1301 3770 
Q 1056 3291 1056 2328 
Q 1056 1369 1301 889 
Q 1547 409 2034 409 
Q 2525 409 2770 889 
Q 3016 1369 3016 2328 
Q 3016 3291 2770 3770 
Q 2525 4250 2034 4250 
z
M 2034 4750 
Q 2819 4750 3233 4129 
Q 3647 3509 3647 2328 
Q 3647 1150 3233 529 
Q 2819 -91 2034 -91 
Q 1250 -91 836 529 
Q 422 1150 422 2328 
Q 422 3509 836 4129 
Q 1250 4750 2034 4750 
z
" transform="scale(0.015625)"/>
       </defs>
       <use xlink:href="#DejaVuSans-30"/>
      </g>
     </g>
    </g>
    <g id="ytick_2">
     <g id="line2d_11">
      <path d="M 41.94 271.574685 
L 423.045 271.574685 
" clip-path="url(#p3d6422c292)" style="fill: none; stroke: #b0b0b0; stroke-width: 0.8; stroke-linecap: square"/>
     </g>
     <g id="line2d_12">
      <g>
       <use xlink:href="#m5827cae0c8" x="41.94" y="271.574685" style="stroke: #000000; stroke-width: 0.8"/>
      </g>
     </g>
     <g id="text_6">
      <!-- 1 -->
      <g transform="translate(28.5775 275.373904) scale(0.1 -0.1)">
       <defs>
        <path id="DejaVuSans-31" d="M 794 531 
L 1825 531 
L 1825 4091 
L 703 3866 
L 703 4441 
L 1819 4666 
L 2450 4666 
L 2450 531 
L 3481 531 
L 3481 0 
L 794 0 
L 794 531 
z
" transform="scale(0.015625)"/>
       </defs>
       <use xlink:href="#DejaVuSans-31"/>
      </g>
     </g>
    </g>
    <g id="ytick_3">
     <g id="line2d_13">
      <path d="M 41.94 235.803124 
L 423.045 235.803124 
" clip-path="url(#p3d6422c292)" style="fill: none; stroke: #b0b0b0; stroke-width: 0.8; stroke-linecap: square"/>
     </g>
     <g id="line2d_14">
      <g>
       <use xlink:href="#m5827cae0c8" x="41.94" y="235.803124" style="stroke: #000000; stroke-width: 0.8"/>
      </g>
     </g>
     <g id="text_7">
      <!-- 2 -->
      <g transform="translate(28.5775 239.602342) scale(0.1 -0.1)">
       <defs>
        <path id="DejaVuSans-32" d="M 1228 531 
L 3431 531 
L 3431 0 
L 469 0 
L 469 531 
Q 828 903 1448 1529 
Q 2069 2156 2228 2338 
Q 2531 2678 2651 2914 
Q 2772 3150 2772 3378 
Q 2772 3750 2511 3984 
Q 2250 4219 1831 4219 
Q 1534 4219 1204 4116 
Q 875 4013 500 3803 
L 500 4441 
Q 881 4594 1212 4672 
Q 1544 4750 1819 4750 
Q 2544 4750 2975 4387 
Q 3406 4025 3406 3419 
Q 3406 3131 3298 2873 
Q 3191 2616 2906 2266 
Q 2828 2175 2409 1742 
Q 1991 1309 1228 531 
z
" transform="scale(0.015625)"/>
       </defs>
       <use xlink:href="#DejaVuSans-32"/>
      </g>
     </g>
    </g>
    <g id="ytick_4">
     <g id="line2d_15">
      <path d="M 41.94 200.031562 
L 423.045 200.031562 
" clip-path="url(#p3d6422c292)" style="fill: none; stroke: #b0b0b0; stroke-width: 0.8; stroke-linecap: square"/>
     </g>
     <g id="line2d_16">
      <g>
       <use xlink:href="#m5827cae0c8" x="41.94" y="200.031562" style="stroke: #000000; stroke-width: 0.8"/>
      </g>
     </g>
     <g id="text_8">
      <!-- 3 -->
      <g transform="translate(28.5775 203.830781) scale(0.1 -0.1)">
       <defs>
        <path id="DejaVuSans-33" d="M 2597 2516 
Q 3050 2419 3304 2112 
Q 3559 1806 3559 1356 
Q 3559 666 3084 287 
Q 2609 -91 1734 -91 
Q 1441 -91 1130 -33 
Q 819 25 488 141 
L 488 750 
Q 750 597 1062 519 
Q 1375 441 1716 441 
Q 2309 441 2620 675 
Q 2931 909 2931 1356 
Q 2931 1769 2642 2001 
Q 2353 2234 1838 2234 
L 1294 2234 
L 1294 2753 
L 1863 2753 
Q 2328 2753 2575 2939 
Q 2822 3125 2822 3475 
Q 2822 3834 2567 4026 
Q 2313 4219 1838 4219 
Q 1578 4219 1281 4162 
Q 984 4106 628 3988 
L 628 4550 
Q 988 4650 1302 4700 
Q 1616 4750 1894 4750 
Q 2613 4750 3031 4423 
Q 3450 4097 3450 3541 
Q 3450 3153 3228 2886 
Q 3006 2619 2597 2516 
z
" transform="scale(0.015625)"/>
       </defs>
       <use xlink:href="#DejaVuSans-33"/>
      </g>
     </g>
    </g>
    <g id="ytick_5">
     <g id="line2d_17">
      <path d="M 41.94 164.26 
L 423.045 164.26 
" clip-path="url(#p3d6422c292)" style="fill: none; stroke: #b0b0b0; stroke-width: 0.8; stroke-linecap: square"/>
     </g>
     <g id="line2d_18">
      <g>
       <use xlink:href="#m5827cae0c8" x="41.94" y="164.26" style="stroke: #000000; stroke-width: 0.8"/>
      </g>
     </g>
     <g id="text_9">
      <!-- 4 -->
      <g transform="translate(28.5775 168.059219) scale(0.1 -0.1)">
       <defs>
        <path id="DejaVuSans-34" d="M 2419 4116 
L 825 1625 
L 2419 1625 
L 2419 4116 
z
M 2253 4666 
L 3047 4666 
L 3047 1625 
L 3713 1625 
L 3713 1100 
L 3047 1100 
L 3047 0 
L 2419 0 
L 2419 1100 
L 313 1100 
L 313 1709 
L 2253 4666 
z
" transform="scale(0.015625)"/>
       </defs>
       <use xlink:href="#DejaVuSans-34"/>
      </g>
     </g>
    </g>
    <g id="ytick_6">
     <g id="line2d_19">
      <path d="M 41.94 128.488438 
L 423.045 128.488438 
" clip-path="url(#p3d6422c292)" style="fill: none; stroke: #b0b0b0; stroke-width: 0.8; stroke-linecap: square"/>
     </g>
     <g id="line2d_20">
      <g>
       <use xlink:href="#m5827cae0c8" x="41.94" y="128.488438" style="stroke: #000000; stroke-width: 0.8"/>
      </g>
     </g>
     <g id="text_10">
      <!-- 5 -->
      <g transform="translate(28.5775 132.287657) scale(0.1 -0.1)">
       <defs>
        <path id="DejaVuSans-35" d="M 691 4666 
L 3169 4666 
L 3169 4134 
L 1269 4134 
L 1269 2991 
Q 1406 3038 1543 3061 
Q 1681 3084 1819 3084 
Q 2600 3084 3056 2656 
Q 3513 2228 3513 1497 
Q 3513 744 3044 326 
Q 2575 -91 1722 -91 
Q 1428 -91 1123 -41 
Q 819 9 494 109 
L 494 744 
Q 775 591 1075 516 
Q 1375 441 1709 441 
Q 2250 441 2565 725 
Q 2881 1009 2881 1497 
Q 2881 1984 2565 2268 
Q 2250 2553 1709 2553 
Q 1456 2553 1204 2497 
Q 953 2441 691 2322 
L 691 4666 
z
" transform="scale(0.015625)"/>
       </defs>
       <use xlink:href="#DejaVuSans-35"/>
      </g>
     </g>
    </g>
    <g id="ytick_7">
     <g id="line2d_21">
      <path d="M 41.94 92.716876 
L 423.045 92.716876 
" clip-path="url(#p3d6422c292)" style="fill: none; stroke: #b0b0b0; stroke-width: 0.8; stroke-linecap: square"/>
     </g>
     <g id="line2d_22">
      <g>
       <use xlink:href="#m5827cae0c8" x="41.94" y="92.716876" style="stroke: #000000; stroke-width: 0.8"/>
      </g>
     </g>
     <g id="text_11">
      <!-- 6 -->
      <g transform="translate(28.5775 96.516095) scale(0.1 -0.1)">
       <defs>
        <path id="DejaVuSans-36" d="M 2113 2584 
Q 1688 2584 1439 2293 
Q 1191 2003 1191 1497 
Q 1191 994 1439 701 
Q 1688 409 2113 409 
Q 2538 409 2786 701 
Q 3034 994 3034 1497 
Q 3034 2003 2786 2293 
Q 2538 2584 2113 2584 
z
M 3366 4563 
L 3366 3988 
Q 3128 4100 2886 4159 
Q 2644 4219 2406 4219 
Q 1781 4219 1451 3797 
Q 1122 3375 1075 2522 
Q 1259 2794 1537 2939 
Q 1816 3084 2150 3084 
Q 2853 3084 3261 2657 
Q 3669 2231 3669 1497 
Q 3669 778 3244 343 
Q 2819 -91 2113 -91 
Q 1303 -91 875 529 
Q 447 1150 447 2328 
Q 447 3434 972 4092 
Q 1497 4750 2381 4750 
Q 2619 4750 2861 4703 
Q 3103 4656 3366 4563 
z
" transform="scale(0.015625)"/>
       </defs>
       <use xlink:href="#DejaVuSans-36"/>
      </g>
     </g>
    </g>
    <g id="ytick_8">
     <g id="line2d_23">
      <path d="M 41.94 56.945315 
L 423.045 56.945315 
" clip-path="url(#p3d6422c292)" style="fill: none; stroke: #b0b0b0; stroke-width: 0.8; stroke-linecap: square"/>
     </g>
     <g id="line2d_24">
      <g>
       <use xlink:href="#m5827cae0c8" x="41.94" y="56.945315" style="stroke: #000000; stroke-width: 0.8"/>
      </g>
     </g>
     <g id="text_12">
      <!-- 7 -->
      <g transform="translate(28.5775 60.744533) scale(0.1 -0.1)">
       <defs>
        <path id="DejaVuSans-37" d="M 525 4666 
L 3525 4666 
L 3525 4397 
L 1831 0 
L 1172 0 
L 2766 4134 
L 525 4134 
L 525 4666 
z
" transform="scale(0.015625)"/>
       </defs>
       <use xlink:href="#DejaVuSans-37"/>
      </g>
     </g>
    </g>
    <g id="ytick_9">
     <g id="line2d_25">
      <path d="M 41.94 21.173753 
L 423.045 21.173753 
" clip-path="url(#p3d6422c292)" style="fill: none; stroke: #b0b0b0; stroke-width: 0.8; stroke-linecap: square"/>
     </g>
     <g id="line2d_26">
      <g>
       <use xlink:href="#m5827cae0c8" x="41.94" y="21.173753" style="stroke: #000000; stroke-width: 0.8"/>
      </g>
     </g>
     <g id="text_13">
      <!-- 8 -->
      <g transform="translate(28.5775 24.972972) scale(0.1 -0.1)">
       <defs>
        <path id="DejaVuSans-38" d="M 2034 2216 
Q 1584 2216 1326 1975 
Q 1069 1734 1069 1313 
Q 1069 891 1326 650 
Q 1584 409 2034 409 
Q 2484 409 2743 651 
Q 3003 894 3003 1313 
Q 3003 1734 2745 1975 
Q 2488 2216 2034 2216 
z
M 1403 2484 
Q 997 2584 770 2862 
Q 544 3141 544 3541 
Q 544 4100 942 4425 
Q 1341 4750 2034 4750 
Q 2731 4750 3128 4425 
Q 3525 4100 3525 3541 
Q 3525 3141 3298 2862 
Q 3072 2584 2669 2484 
Q 3125 2378 3379 2068 
Q 3634 1759 3634 1313 
Q 3634 634 3220 271 
Q 2806 -91 2034 -91 
Q 1263 -91 848 271 
Q 434 634 434 1313 
Q 434 1759 690 2068 
Q 947 2378 1403 2484 
z
M 1172 3481 
Q 1172 3119 1398 2916 
Q 1625 2713 2034 2713 
Q 2441 2713 2670 2916 
Q 2900 3119 2900 3481 
Q 2900 3844 2670 4047 
Q 2441 4250 2034 4250 
Q 1625 4250 1398 4047 
Q 1172 3844 1172 3481 
z
" transform="scale(0.015625)"/>
       </defs>
       <use xlink:href="#DejaVuSans-38"/>
      </g>
     </g>
    </g>
   </g>
   <g id="line2d_27">
    <path d="M 41.94 124.911282 
L 168.975 182.145781 
L 296.01 257.266061 
L 423.045 300.191935 
" clip-path="url(#p3d6422c292)" style="fill: none; stroke: #556270; stroke-width: 1.5; stroke-linecap: square"/>
   </g>
   <g id="line2d_28">
    <path d="M 41.94 132.065594 
L 168.975 200.031562 
L 296.01 257.266061 
L 423.045 300.191935 
" clip-path="url(#p3d6422c292)" style="fill: none; stroke: #556270; stroke-width: 1.5; stroke-linecap: square"/>
   </g>
   <g id="line2d_29">
    <path d="M 41.94 139.219907 
L 168.975 192.877249 
L 296.01 260.843217 
L 423.045 300.191935 
" clip-path="url(#p3d6422c292)" style="fill: none; stroke: #556270; stroke-width: 1.5; stroke-linecap: square"/>
   </g>
   <g id="line2d_30">
    <path d="M 41.94 142.797063 
L 168.975 196.454406 
L 296.01 253.688904 
L 423.045 300.191935 
" clip-path="url(#p3d6422c292)" style="fill: none; stroke: #556270; stroke-width: 1.5; stroke-linecap: square"/>
   </g>
   <g id="line2d_31">
    <path d="M 41.94 128.488438 
L 168.975 178.568625 
L 296.01 257.266061 
L 423.045 300.191935 
" clip-path="url(#p3d6422c292)" style="fill: none; stroke: #556270; stroke-width: 1.5; stroke-linecap: square"/>
   </g>
   <g id="line2d_32">
    <path d="M 41.94 114.179814 
L 168.975 167.837156 
L 296.01 246.534592 
L 423.045 293.037622 
" clip-path="url(#p3d6422c292)" style="fill: none; stroke: #556270; stroke-width: 1.5; stroke-linecap: square"/>
   </g>
   <g id="line2d_33">
    <path d="M 41.94 142.797063 
L 168.975 185.722937 
L 296.01 257.266061 
L 423.045 296.614779 
" clip-path="url(#p3d6422c292)" style="fill: none; stroke: #556270; stroke-width: 1.5; stroke-linecap: square"/>
   </g>
   <g id="line2d_34">
    <path d="M 41.94 128.488438 
L 168.975 185.722937 
L 296.01 253.688904 
L 423.045 300.191935 
" clip-path="url(#p3d6422c292)" style="fill: none; stroke: #556270; stroke-width: 1.5; stroke-linecap: square"/>
   </g>
   <g id="line2d_35">
    <path d="M 41.94 149.951375 
L 168.975 203.608718 
L 296.01 257.266061 
L 423.045 300.191935 
" clip-path="url(#p3d6422c292)" style="fill: none; stroke: #556270; stroke-width: 1.5; stroke-linecap: square"/>
   </g>
   <g id="line2d_36">
    <path d="M 41.94 132.065594 
L 168.975 196.454406 
L 296.01 253.688904 
L 423.045 303.769091 
" clip-path="url(#p3d6422c292)" style="fill: none; stroke: #556270; stroke-width: 1.5; stroke-linecap: square"/>
   </g>
   <g id="line2d_37">
    <path d="M 41.94 114.179814 
L 168.975 174.991469 
L 296.01 253.688904 
L 423.045 300.191935 
" clip-path="url(#p3d6422c292)" style="fill: none; stroke: #556270; stroke-width: 1.5; stroke-linecap: square"/>
   </g>
   <g id="line2d_38">
    <path d="M 41.94 135.642751 
L 168.975 185.722937 
L 296.01 250.111748 
L 423.045 300.191935 
" clip-path="url(#p3d6422c292)" style="fill: none; stroke: #556270; stroke-width: 1.5; stroke-linecap: square"/>
   </g>
   <g id="line2d_39">
    <path d="M 41.94 135.642751 
L 168.975 200.031562 
L 296.01 257.266061 
L 423.045 303.769091 
" clip-path="url(#p3d6422c292)" style="fill: none; stroke: #556270; stroke-width: 1.5; stroke-linecap: square"/>
   </g>
   <g id="line2d_40">
    <path d="M 41.94 153.528531 
L 168.975 200.031562 
L 296.01 267.997529 
L 423.045 303.769091 
" clip-path="url(#p3d6422c292)" style="fill: none; stroke: #556270; stroke-width: 1.5; stroke-linecap: square"/>
   </g>
   <g id="line2d_41">
    <path d="M 41.94 99.871189 
L 168.975 164.26 
L 296.01 264.420373 
L 423.045 300.191935 
" clip-path="url(#p3d6422c292)" style="fill: none; stroke: #556270; stroke-width: 1.5; stroke-linecap: square"/>
   </g>
   <g id="line2d_42">
    <path d="M 41.94 103.448345 
L 168.975 149.951375 
L 296.01 253.688904 
L 423.045 293.037622 
" clip-path="url(#p3d6422c292)" style="fill: none; stroke: #556270; stroke-width: 1.5; stroke-linecap: square"/>
   </g>
   <g id="line2d_43">
    <path d="M 41.94 114.179814 
L 168.975 167.837156 
L 296.01 260.843217 
L 423.045 293.037622 
" clip-path="url(#p3d6422c292)" style="fill: none; stroke: #556270; stroke-width: 1.5; stroke-linecap: square"/>
   </g>
   <g id="line2d_44">
    <path d="M 41.94 124.911282 
L 168.975 182.145781 
L 296.01 257.266061 
L 423.045 296.614779 
" clip-path="url(#p3d6422c292)" style="fill: none; stroke: #556270; stroke-width: 1.5; stroke-linecap: square"/>
   </g>
   <g id="line2d_45">
    <path d="M 41.94 103.448345 
L 168.975 171.414312 
L 296.01 246.534592 
L 423.045 296.614779 
" clip-path="url(#p3d6422c292)" style="fill: none; stroke: #556270; stroke-width: 1.5; stroke-linecap: square"/>
   </g>
   <g id="line2d_46">
    <path d="M 41.94 124.911282 
L 168.975 171.414312 
L 296.01 253.688904 
L 423.045 296.614779 
" clip-path="url(#p3d6422c292)" style="fill: none; stroke: #556270; stroke-width: 1.5; stroke-linecap: square"/>
   </g>
   <g id="line2d_47">
    <path d="M 41.94 114.179814 
L 168.975 185.722937 
L 296.01 246.534592 
L 423.045 300.191935 
" clip-path="url(#p3d6422c292)" style="fill: none; stroke: #556270; stroke-width: 1.5; stroke-linecap: square"/>
   </g>
   <g id="line2d_48">
    <path d="M 41.94 124.911282 
L 168.975 174.991469 
L 296.01 253.688904 
L 423.045 293.037622 
" clip-path="url(#p3d6422c292)" style="fill: none; stroke: #556270; stroke-width: 1.5; stroke-linecap: square"/>
   </g>
   <g id="line2d_49">
    <path d="M 41.94 142.797063 
L 168.975 178.568625 
L 296.01 271.574685 
L 423.045 300.191935 
" clip-path="url(#p3d6422c292)" style="fill: none; stroke: #556270; stroke-width: 1.5; stroke-linecap: square"/>
   </g>
   <g id="line2d_50">
    <path d="M 41.94 124.911282 
L 168.975 189.300093 
L 296.01 246.534592 
L 423.045 289.460466 
" clip-path="url(#p3d6422c292)" style="fill: none; stroke: #556270; stroke-width: 1.5; stroke-linecap: square"/>
   </g>
   <g id="line2d_51">
    <path d="M 41.94 135.642751 
L 168.975 185.722937 
L 296.01 239.38028 
L 423.045 300.191935 
" clip-path="url(#p3d6422c292)" style="fill: none; stroke: #556270; stroke-width: 1.5; stroke-linecap: square"/>
   </g>
   <g id="line2d_52">
    <path d="M 41.94 128.488438 
L 168.975 200.031562 
L 296.01 250.111748 
L 423.045 300.191935 
" clip-path="url(#p3d6422c292)" style="fill: none; stroke: #556270; stroke-width: 1.5; stroke-linecap: square"/>
   </g>
   <g id="line2d_53">
    <path d="M 41.94 128.488438 
L 168.975 185.722937 
L 296.01 250.111748 
L 423.045 293.037622 
" clip-path="url(#p3d6422c292)" style="fill: none; stroke: #556270; stroke-width: 1.5; stroke-linecap: square"/>
   </g>
   <g id="line2d_54">
    <path d="M 41.94 121.334126 
L 168.975 182.145781 
L 296.01 253.688904 
L 423.045 300.191935 
" clip-path="url(#p3d6422c292)" style="fill: none; stroke: #556270; stroke-width: 1.5; stroke-linecap: square"/>
   </g>
   <g id="line2d_55">
    <path d="M 41.94 121.334126 
L 168.975 185.722937 
L 296.01 257.266061 
L 423.045 300.191935 
" clip-path="url(#p3d6422c292)" style="fill: none; stroke: #556270; stroke-width: 1.5; stroke-linecap: square"/>
   </g>
   <g id="line2d_56">
    <path d="M 41.94 139.219907 
L 168.975 192.877249 
L 296.01 250.111748 
L 423.045 300.191935 
" clip-path="url(#p3d6422c292)" style="fill: none; stroke: #556270; stroke-width: 1.5; stroke-linecap: square"/>
   </g>
   <g id="line2d_57">
    <path d="M 41.94 135.642751 
L 168.975 196.454406 
L 296.01 250.111748 
L 423.045 300.191935 
" clip-path="url(#p3d6422c292)" style="fill: none; stroke: #556270; stroke-width: 1.5; stroke-linecap: square"/>
   </g>
   <g id="line2d_58">
    <path d="M 41.94 114.179814 
L 168.975 185.722937 
L 296.01 253.688904 
L 423.045 293.037622 
" clip-path="url(#p3d6422c292)" style="fill: none; stroke: #556270; stroke-width: 1.5; stroke-linecap: square"/>
   </g>
   <g id="line2d_59">
    <path d="M 41.94 121.334126 
L 168.975 160.682844 
L 296.01 253.688904 
L 423.045 303.769091 
" clip-path="url(#p3d6422c292)" style="fill: none; stroke: #556270; stroke-width: 1.5; stroke-linecap: square"/>
   </g>
   <g id="line2d_60">
    <path d="M 41.94 110.602657 
L 168.975 157.105688 
L 296.01 257.266061 
L 423.045 300.191935 
" clip-path="url(#p3d6422c292)" style="fill: none; stroke: #556270; stroke-width: 1.5; stroke-linecap: square"/>
   </g>
   <g id="line2d_61">
    <path d="M 41.94 132.065594 
L 168.975 196.454406 
L 296.01 253.688904 
L 423.045 303.769091 
" clip-path="url(#p3d6422c292)" style="fill: none; stroke: #556270; stroke-width: 1.5; stroke-linecap: square"/>
   </g>
   <g id="line2d_62">
    <path d="M 41.94 128.488438 
L 168.975 192.877249 
L 296.01 264.420373 
L 423.045 300.191935 
" clip-path="url(#p3d6422c292)" style="fill: none; stroke: #556270; stroke-width: 1.5; stroke-linecap: square"/>
   </g>
   <g id="line2d_63">
    <path d="M 41.94 110.602657 
L 168.975 182.145781 
L 296.01 260.843217 
L 423.045 300.191935 
" clip-path="url(#p3d6422c292)" style="fill: none; stroke: #556270; stroke-width: 1.5; stroke-linecap: square"/>
   </g>
   <g id="line2d_64">
    <path d="M 41.94 132.065594 
L 168.975 196.454406 
L 296.01 253.688904 
L 423.045 303.769091 
" clip-path="url(#p3d6422c292)" style="fill: none; stroke: #556270; stroke-width: 1.5; stroke-linecap: square"/>
   </g>
   <g id="line2d_65">
    <path d="M 41.94 149.951375 
L 168.975 200.031562 
L 296.01 260.843217 
L 423.045 300.191935 
" clip-path="url(#p3d6422c292)" style="fill: none; stroke: #556270; stroke-width: 1.5; stroke-linecap: square"/>
   </g>
   <g id="line2d_66">
    <path d="M 41.94 124.911282 
L 168.975 185.722937 
L 296.01 253.688904 
L 423.045 300.191935 
" clip-path="url(#p3d6422c292)" style="fill: none; stroke: #556270; stroke-width: 1.5; stroke-linecap: square"/>
   </g>
   <g id="line2d_67">
    <path d="M 41.94 128.488438 
L 168.975 182.145781 
L 296.01 260.843217 
L 423.045 296.614779 
" clip-path="url(#p3d6422c292)" style="fill: none; stroke: #556270; stroke-width: 1.5; stroke-linecap: square"/>
   </g>
   <g id="line2d_68">
    <path d="M 41.94 146.374219 
L 168.975 225.071655 
L 296.01 260.843217 
L 423.045 296.614779 
" clip-path="url(#p3d6422c292)" style="fill: none; stroke: #556270; stroke-width: 1.5; stroke-linecap: square"/>
   </g>
   <g id="line2d_69">
    <path d="M 41.94 149.951375 
L 168.975 192.877249 
L 296.01 260.843217 
L 423.045 300.191935 
" clip-path="url(#p3d6422c292)" style="fill: none; stroke: #556270; stroke-width: 1.5; stroke-linecap: square"/>
   </g>
   <g id="line2d_70">
    <path d="M 41.94 128.488438 
L 168.975 182.145781 
L 296.01 250.111748 
L 423.045 285.88331 
" clip-path="url(#p3d6422c292)" style="fill: none; stroke: #556270; stroke-width: 1.5; stroke-linecap: square"/>
   </g>
   <g id="line2d_71">
    <path d="M 41.94 124.911282 
L 168.975 171.414312 
L 296.01 239.38028 
L 423.045 293.037622 
" clip-path="url(#p3d6422c292)" style="fill: none; stroke: #556270; stroke-width: 1.5; stroke-linecap: square"/>
   </g>
   <g id="line2d_72">
    <path d="M 41.94 135.642751 
L 168.975 200.031562 
L 296.01 257.266061 
L 423.045 296.614779 
" clip-path="url(#p3d6422c292)" style="fill: none; stroke: #556270; stroke-width: 1.5; stroke-linecap: square"/>
   </g>
   <g id="line2d_73">
    <path d="M 41.94 124.911282 
L 168.975 171.414312 
L 296.01 250.111748 
L 423.045 300.191935 
" clip-path="url(#p3d6422c292)" style="fill: none; stroke: #556270; stroke-width: 1.5; stroke-linecap: square"/>
   </g>
   <g id="line2d_74">
    <path d="M 41.94 142.797063 
L 168.975 192.877249 
L 296.01 257.266061 
L 423.045 300.191935 
" clip-path="url(#p3d6422c292)" style="fill: none; stroke: #556270; stroke-width: 1.5; stroke-linecap: square"/>
   </g>
   <g id="line2d_75">
    <path d="M 41.94 117.75697 
L 168.975 174.991469 
L 296.01 253.688904 
L 423.045 300.191935 
" clip-path="url(#p3d6422c292)" style="fill: none; stroke: #556270; stroke-width: 1.5; stroke-linecap: square"/>
   </g>
   <g id="line2d_76">
    <path d="M 41.94 128.488438 
L 168.975 189.300093 
L 296.01 257.266061 
L 423.045 300.191935 
" clip-path="url(#p3d6422c292)" style="fill: none; stroke: #556270; stroke-width: 1.5; stroke-linecap: square"/>
   </g>
   <g id="line2d_77">
    <path d="M 41.94 56.945315 
L 168.975 192.877249 
L 296.01 139.219907 
L 423.045 257.266061 
" clip-path="url(#p3d6422c292)" style="fill: none; stroke: #4ecdc4; stroke-width: 1.5; stroke-linecap: square"/>
   </g>
   <g id="line2d_78">
    <path d="M 41.94 78.408252 
L 168.975 192.877249 
L 296.01 146.374219 
L 423.045 253.688904 
" clip-path="url(#p3d6422c292)" style="fill: none; stroke: #4ecdc4; stroke-width: 1.5; stroke-linecap: square"/>
   </g>
   <g id="line2d_79">
    <path d="M 41.94 60.522471 
L 168.975 196.454406 
L 296.01 132.065594 
L 423.045 253.688904 
" clip-path="url(#p3d6422c292)" style="fill: none; stroke: #4ecdc4; stroke-width: 1.5; stroke-linecap: square"/>
   </g>
   <g id="line2d_80">
    <path d="M 41.94 110.602657 
L 168.975 225.071655 
L 296.01 164.26 
L 423.045 260.843217 
" clip-path="url(#p3d6422c292)" style="fill: none; stroke: #4ecdc4; stroke-width: 1.5; stroke-linecap: square"/>
   </g>
   <g id="line2d_81">
    <path d="M 41.94 74.831096 
L 168.975 207.185874 
L 296.01 142.797063 
L 423.045 253.688904 
" clip-path="url(#p3d6422c292)" style="fill: none; stroke: #4ecdc4; stroke-width: 1.5; stroke-linecap: square"/>
   </g>
   <g id="line2d_82">
    <path d="M 41.94 103.448345 
L 168.975 207.185874 
L 296.01 146.374219 
L 423.045 260.843217 
" clip-path="url(#p3d6422c292)" style="fill: none; stroke: #4ecdc4; stroke-width: 1.5; stroke-linecap: square"/>
   </g>
   <g id="line2d_83">
    <path d="M 41.94 81.985408 
L 168.975 189.300093 
L 296.01 139.219907 
L 423.045 250.111748 
" clip-path="url(#p3d6422c292)" style="fill: none; stroke: #4ecdc4; stroke-width: 1.5; stroke-linecap: square"/>
   </g>
   <g id="line2d_84">
    <path d="M 41.94 132.065594 
L 168.975 221.494499 
L 296.01 189.300093 
L 423.045 271.574685 
" clip-path="url(#p3d6422c292)" style="fill: none; stroke: #4ecdc4; stroke-width: 1.5; stroke-linecap: square"/>
   </g>
   <g id="line2d_85">
    <path d="M 41.94 71.253939 
L 168.975 203.608718 
L 296.01 142.797063 
L 423.045 260.843217 
" clip-path="url(#p3d6422c292)" style="fill: none; stroke: #4ecdc4; stroke-width: 1.5; stroke-linecap: square"/>
   </g>
   <g id="line2d_86">
    <path d="M 41.94 121.334126 
L 168.975 210.76303 
L 296.01 167.837156 
L 423.045 257.266061 
" clip-path="url(#p3d6422c292)" style="fill: none; stroke: #4ecdc4; stroke-width: 1.5; stroke-linecap: square"/>
   </g>
   <g id="line2d_87">
    <path d="M 41.94 128.488438 
L 168.975 235.803124 
L 296.01 182.145781 
L 423.045 271.574685 
" clip-path="url(#p3d6422c292)" style="fill: none; stroke: #4ecdc4; stroke-width: 1.5; stroke-linecap: square"/>
   </g>
   <g id="line2d_88">
    <path d="M 41.94 96.294033 
L 168.975 200.031562 
L 296.01 157.105688 
L 423.045 253.688904 
" clip-path="url(#p3d6422c292)" style="fill: none; stroke: #4ecdc4; stroke-width: 1.5; stroke-linecap: square"/>
   </g>
   <g id="line2d_89">
    <path d="M 41.94 92.716876 
L 168.975 228.648811 
L 296.01 164.26 
L 423.045 271.574685 
" clip-path="url(#p3d6422c292)" style="fill: none; stroke: #4ecdc4; stroke-width: 1.5; stroke-linecap: square"/>
   </g>
   <g id="line2d_90">
    <path d="M 41.94 89.13972 
L 168.975 203.608718 
L 296.01 139.219907 
L 423.045 257.266061 
" clip-path="url(#p3d6422c292)" style="fill: none; stroke: #4ecdc4; stroke-width: 1.5; stroke-linecap: square"/>
   </g>
   <g id="line2d_91">
    <path d="M 41.94 107.025501 
L 168.975 203.608718 
L 296.01 178.568625 
L 423.045 260.843217 
" clip-path="url(#p3d6422c292)" style="fill: none; stroke: #4ecdc4; stroke-width: 1.5; stroke-linecap: square"/>
   </g>
   <g id="line2d_92">
    <path d="M 41.94 67.676783 
L 168.975 196.454406 
L 296.01 149.951375 
L 423.045 257.266061 
" clip-path="url(#p3d6422c292)" style="fill: none; stroke: #4ecdc4; stroke-width: 1.5; stroke-linecap: square"/>
   </g>
   <g id="line2d_93">
    <path d="M 41.94 107.025501 
L 168.975 200.031562 
L 296.01 146.374219 
L 423.045 253.688904 
" clip-path="url(#p3d6422c292)" style="fill: none; stroke: #4ecdc4; stroke-width: 1.5; stroke-linecap: square"/>
   </g>
   <g id="line2d_94">
    <path d="M 41.94 99.871189 
L 168.975 210.76303 
L 296.01 160.682844 
L 423.045 271.574685 
" clip-path="url(#p3d6422c292)" style="fill: none; stroke: #4ecdc4; stroke-width: 1.5; stroke-linecap: square"/>
   </g>
   <g id="line2d_95">
    <path d="M 41.94 85.562564 
L 168.975 228.648811 
L 296.01 146.374219 
L 423.045 253.688904 
" clip-path="url(#p3d6422c292)" style="fill: none; stroke: #4ecdc4; stroke-width: 1.5; stroke-linecap: square"/>
   </g>
   <g id="line2d_96">
    <path d="M 41.94 107.025501 
L 168.975 217.917343 
L 296.01 167.837156 
L 423.045 267.997529 
" clip-path="url(#p3d6422c292)" style="fill: none; stroke: #4ecdc4; stroke-width: 1.5; stroke-linecap: square"/>
   </g>
   <g id="line2d_97">
    <path d="M 41.94 96.294033 
L 168.975 192.877249 
L 296.01 135.642751 
L 423.045 242.957436 
" clip-path="url(#p3d6422c292)" style="fill: none; stroke: #4ecdc4; stroke-width: 1.5; stroke-linecap: square"/>
   </g>
   <g id="line2d_98">
    <path d="M 41.94 89.13972 
L 168.975 207.185874 
L 296.01 164.26 
L 423.045 260.843217 
" clip-path="url(#p3d6422c292)" style="fill: none; stroke: #4ecdc4; stroke-width: 1.5; stroke-linecap: square"/>
   </g>
   <g id="line2d_99">
    <path d="M 41.94 81.985408 
L 168.975 217.917343 
L 296.01 132.065594 
L 423.045 253.688904 
" clip-path="url(#p3d6422c292)" style="fill: none; stroke: #4ecdc4; stroke-width: 1.5; stroke-linecap: square"/>
   </g>
   <g id="line2d_100">
    <path d="M 41.94 89.13972 
L 168.975 207.185874 
L 296.01 139.219907 
L 423.045 264.420373 
" clip-path="url(#p3d6422c292)" style="fill: none; stroke: #4ecdc4; stroke-width: 1.5; stroke-linecap: square"/>
   </g>
   <g id="line2d_101">
    <path d="M 41.94 78.408252 
L 168.975 203.608718 
L 296.01 153.528531 
L 423.045 260.843217 
" clip-path="url(#p3d6422c292)" style="fill: none; stroke: #4ecdc4; stroke-width: 1.5; stroke-linecap: square"/>
   </g>
   <g id="line2d_102">
    <path d="M 41.94 71.253939 
L 168.975 200.031562 
L 296.01 149.951375 
L 423.045 257.266061 
" clip-path="url(#p3d6422c292)" style="fill: none; stroke: #4ecdc4; stroke-width: 1.5; stroke-linecap: square"/>
   </g>
   <g id="line2d_103">
    <path d="M 41.94 64.099627 
L 168.975 207.185874 
L 296.01 135.642751 
L 423.045 257.266061 
" clip-path="url(#p3d6422c292)" style="fill: none; stroke: #4ecdc4; stroke-width: 1.5; stroke-linecap: square"/>
   </g>
   <g id="line2d_104">
    <path d="M 41.94 67.676783 
L 168.975 200.031562 
L 296.01 128.488438 
L 423.045 246.534592 
" clip-path="url(#p3d6422c292)" style="fill: none; stroke: #4ecdc4; stroke-width: 1.5; stroke-linecap: square"/>
   </g>
   <g id="line2d_105">
    <path d="M 41.94 92.716876 
L 168.975 203.608718 
L 296.01 146.374219 
L 423.045 253.688904 
" clip-path="url(#p3d6422c292)" style="fill: none; stroke: #4ecdc4; stroke-width: 1.5; stroke-linecap: square"/>
   </g>
   <g id="line2d_106">
    <path d="M 41.94 103.448345 
L 168.975 214.340186 
L 296.01 182.145781 
L 423.045 271.574685 
" clip-path="url(#p3d6422c292)" style="fill: none; stroke: #4ecdc4; stroke-width: 1.5; stroke-linecap: square"/>
   </g>
   <g id="line2d_107">
    <path d="M 41.94 110.602657 
L 168.975 221.494499 
L 296.01 171.414312 
L 423.045 267.997529 
" clip-path="url(#p3d6422c292)" style="fill: none; stroke: #4ecdc4; stroke-width: 1.5; stroke-linecap: square"/>
   </g>
   <g id="line2d_108">
    <path d="M 41.94 110.602657 
L 168.975 221.494499 
L 296.01 174.991469 
L 423.045 271.574685 
" clip-path="url(#p3d6422c292)" style="fill: none; stroke: #4ecdc4; stroke-width: 1.5; stroke-linecap: square"/>
   </g>
   <g id="line2d_109">
    <path d="M 41.94 99.871189 
L 168.975 210.76303 
L 296.01 167.837156 
L 423.045 264.420373 
" clip-path="url(#p3d6422c292)" style="fill: none; stroke: #4ecdc4; stroke-width: 1.5; stroke-linecap: square"/>
   </g>
   <g id="line2d_110">
    <path d="M 41.94 92.716876 
L 168.975 210.76303 
L 296.01 124.911282 
L 423.045 250.111748 
" clip-path="url(#p3d6422c292)" style="fill: none; stroke: #4ecdc4; stroke-width: 1.5; stroke-linecap: square"/>
   </g>
   <g id="line2d_111">
    <path d="M 41.94 114.179814 
L 168.975 200.031562 
L 296.01 146.374219 
L 423.045 253.688904 
" clip-path="url(#p3d6422c292)" style="fill: none; stroke: #4ecdc4; stroke-width: 1.5; stroke-linecap: square"/>
   </g>
   <g id="line2d_112">
    <path d="M 41.94 92.716876 
L 168.975 185.722937 
L 296.01 146.374219 
L 423.045 250.111748 
" clip-path="url(#p3d6422c292)" style="fill: none; stroke: #4ecdc4; stroke-width: 1.5; stroke-linecap: square"/>
   </g>
   <g id="line2d_113">
    <path d="M 41.94 67.676783 
L 168.975 196.454406 
L 296.01 139.219907 
L 423.045 253.688904 
" clip-path="url(#p3d6422c292)" style="fill: none; stroke: #4ecdc4; stroke-width: 1.5; stroke-linecap: square"/>
   </g>
   <g id="line2d_114">
    <path d="M 41.94 81.985408 
L 168.975 225.071655 
L 296.01 149.951375 
L 423.045 260.843217 
" clip-path="url(#p3d6422c292)" style="fill: none; stroke: #4ecdc4; stroke-width: 1.5; stroke-linecap: square"/>
   </g>
   <g id="line2d_115">
    <path d="M 41.94 107.025501 
L 168.975 200.031562 
L 296.01 160.682844 
L 423.045 260.843217 
" clip-path="url(#p3d6422c292)" style="fill: none; stroke: #4ecdc4; stroke-width: 1.5; stroke-linecap: square"/>
   </g>
   <g id="line2d_116">
    <path d="M 41.94 110.602657 
L 168.975 217.917343 
L 296.01 164.26 
L 423.045 260.843217 
" clip-path="url(#p3d6422c292)" style="fill: none; stroke: #4ecdc4; stroke-width: 1.5; stroke-linecap: square"/>
   </g>
   <g id="line2d_117">
    <path d="M 41.94 110.602657 
L 168.975 214.340186 
L 296.01 149.951375 
L 423.045 264.420373 
" clip-path="url(#p3d6422c292)" style="fill: none; stroke: #4ecdc4; stroke-width: 1.5; stroke-linecap: square"/>
   </g>
   <g id="line2d_118">
    <path d="M 41.94 89.13972 
L 168.975 200.031562 
L 296.01 142.797063 
L 423.045 257.266061 
" clip-path="url(#p3d6422c292)" style="fill: none; stroke: #4ecdc4; stroke-width: 1.5; stroke-linecap: square"/>
   </g>
   <g id="line2d_119">
    <path d="M 41.94 99.871189 
L 168.975 214.340186 
L 296.01 164.26 
L 423.045 264.420373 
" clip-path="url(#p3d6422c292)" style="fill: none; stroke: #4ecdc4; stroke-width: 1.5; stroke-linecap: square"/>
   </g>
   <g id="line2d_120">
    <path d="M 41.94 128.488438 
L 168.975 225.071655 
L 296.01 189.300093 
L 423.045 271.574685 
" clip-path="url(#p3d6422c292)" style="fill: none; stroke: #4ecdc4; stroke-width: 1.5; stroke-linecap: square"/>
   </g>
   <g id="line2d_121">
    <path d="M 41.94 107.025501 
L 168.975 210.76303 
L 296.01 157.105688 
L 423.045 260.843217 
" clip-path="url(#p3d6422c292)" style="fill: none; stroke: #4ecdc4; stroke-width: 1.5; stroke-linecap: square"/>
   </g>
   <g id="line2d_122">
    <path d="M 41.94 103.448345 
L 168.975 200.031562 
L 296.01 157.105688 
L 423.045 264.420373 
" clip-path="url(#p3d6422c292)" style="fill: none; stroke: #4ecdc4; stroke-width: 1.5; stroke-linecap: square"/>
   </g>
   <g id="line2d_123">
    <path d="M 41.94 103.448345 
L 168.975 203.608718 
L 296.01 157.105688 
L 423.045 260.843217 
" clip-path="url(#p3d6422c292)" style="fill: none; stroke: #4ecdc4; stroke-width: 1.5; stroke-linecap: square"/>
   </g>
   <g id="line2d_124">
    <path d="M 41.94 85.562564 
L 168.975 203.608718 
L 296.01 153.528531 
L 423.045 260.843217 
" clip-path="url(#p3d6422c292)" style="fill: none; stroke: #4ecdc4; stroke-width: 1.5; stroke-linecap: square"/>
   </g>
   <g id="line2d_125">
    <path d="M 41.94 124.911282 
L 168.975 217.917343 
L 296.01 200.031562 
L 423.045 267.997529 
" clip-path="url(#p3d6422c292)" style="fill: none; stroke: #4ecdc4; stroke-width: 1.5; stroke-linecap: square"/>
   </g>
   <g id="line2d_126">
    <path d="M 41.94 103.448345 
L 168.975 207.185874 
L 296.01 160.682844 
L 423.045 260.843217 
" clip-path="url(#p3d6422c292)" style="fill: none; stroke: #4ecdc4; stroke-width: 1.5; stroke-linecap: square"/>
   </g>
   <g id="line2d_127">
    <path d="M 41.94 81.985408 
L 168.975 189.300093 
L 296.01 92.716876 
L 423.045 217.917343 
" clip-path="url(#p3d6422c292)" style="fill: none; stroke: #c7f464; stroke-width: 1.5; stroke-linecap: square"/>
   </g>
   <g id="line2d_128">
    <path d="M 41.94 99.871189 
L 168.975 210.76303 
L 296.01 124.911282 
L 423.045 239.38028 
" clip-path="url(#p3d6422c292)" style="fill: none; stroke: #c7f464; stroke-width: 1.5; stroke-linecap: square"/>
   </g>
   <g id="line2d_129">
    <path d="M 41.94 53.368159 
L 168.975 200.031562 
L 296.01 96.294033 
L 423.045 232.225967 
" clip-path="url(#p3d6422c292)" style="fill: none; stroke: #c7f464; stroke-width: 1.5; stroke-linecap: square"/>
   </g>
   <g id="line2d_130">
    <path d="M 41.94 81.985408 
L 168.975 203.608718 
L 296.01 107.025501 
L 423.045 242.957436 
" clip-path="url(#p3d6422c292)" style="fill: none; stroke: #c7f464; stroke-width: 1.5; stroke-linecap: square"/>
   </g>
   <g id="line2d_131">
    <path d="M 41.94 74.831096 
L 168.975 200.031562 
L 296.01 99.871189 
L 423.045 228.648811 
" clip-path="url(#p3d6422c292)" style="fill: none; stroke: #c7f464; stroke-width: 1.5; stroke-linecap: square"/>
   </g>
   <g id="line2d_132">
    <path d="M 41.94 35.482378 
L 168.975 200.031562 
L 296.01 71.253939 
L 423.045 232.225967 
" clip-path="url(#p3d6422c292)" style="fill: none; stroke: #c7f464; stroke-width: 1.5; stroke-linecap: square"/>
   </g>
   <g id="line2d_133">
    <path d="M 41.94 132.065594 
L 168.975 217.917343 
L 296.01 146.374219 
L 423.045 246.534592 
" clip-path="url(#p3d6422c292)" style="fill: none; stroke: #c7f464; stroke-width: 1.5; stroke-linecap: square"/>
   </g>
   <g id="line2d_134">
    <path d="M 41.94 46.213846 
L 168.975 203.608718 
L 296.01 81.985408 
L 423.045 242.957436 
" clip-path="url(#p3d6422c292)" style="fill: none; stroke: #c7f464; stroke-width: 1.5; stroke-linecap: square"/>
   </g>
   <g id="line2d_135">
    <path d="M 41.94 67.676783 
L 168.975 217.917343 
L 296.01 99.871189 
L 423.045 242.957436 
" clip-path="url(#p3d6422c292)" style="fill: none; stroke: #c7f464; stroke-width: 1.5; stroke-linecap: square"/>
   </g>
   <g id="line2d_136">
    <path d="M 41.94 49.791002 
L 168.975 178.568625 
L 296.01 89.13972 
L 423.045 217.917343 
" clip-path="url(#p3d6422c292)" style="fill: none; stroke: #c7f464; stroke-width: 1.5; stroke-linecap: square"/>
   </g>
   <g id="line2d_137">
    <path d="M 41.94 74.831096 
L 168.975 192.877249 
L 296.01 124.911282 
L 423.045 235.803124 
" clip-path="url(#p3d6422c292)" style="fill: none; stroke: #c7f464; stroke-width: 1.5; stroke-linecap: square"/>
   </g>
   <g id="line2d_138">
    <path d="M 41.94 78.408252 
L 168.975 210.76303 
L 296.01 117.75697 
L 423.045 239.38028 
" clip-path="url(#p3d6422c292)" style="fill: none; stroke: #c7f464; stroke-width: 1.5; stroke-linecap: square"/>
   </g>
   <g id="line2d_139">
    <path d="M 41.94 64.099627 
L 168.975 200.031562 
L 296.01 110.602657 
L 423.045 232.225967 
" clip-path="url(#p3d6422c292)" style="fill: none; stroke: #c7f464; stroke-width: 1.5; stroke-linecap: square"/>
   </g>
   <g id="line2d_140">
    <path d="M 41.94 103.448345 
L 168.975 217.917343 
L 296.01 128.488438 
L 423.045 235.803124 
" clip-path="url(#p3d6422c292)" style="fill: none; stroke: #c7f464; stroke-width: 1.5; stroke-linecap: square"/>
   </g>
   <g id="line2d_141">
    <path d="M 41.94 99.871189 
L 168.975 207.185874 
L 296.01 124.911282 
L 423.045 221.494499 
" clip-path="url(#p3d6422c292)" style="fill: none; stroke: #c7f464; stroke-width: 1.5; stroke-linecap: square"/>
   </g>
   <g id="line2d_142">
    <path d="M 41.94 78.408252 
L 168.975 192.877249 
L 296.01 117.75697 
L 423.045 225.071655 
" clip-path="url(#p3d6422c292)" style="fill: none; stroke: #c7f464; stroke-width: 1.5; stroke-linecap: square"/>
   </g>
   <g id="line2d_143">
    <path d="M 41.94 74.831096 
L 168.975 200.031562 
L 296.01 110.602657 
L 423.045 242.957436 
" clip-path="url(#p3d6422c292)" style="fill: none; stroke: #c7f464; stroke-width: 1.5; stroke-linecap: square"/>
   </g>
   <g id="line2d_144">
    <path d="M 41.94 31.905221 
L 168.975 171.414312 
L 296.01 67.676783 
L 423.045 228.648811 
" clip-path="url(#p3d6422c292)" style="fill: none; stroke: #c7f464; stroke-width: 1.5; stroke-linecap: square"/>
   </g>
   <g id="line2d_145">
    <path d="M 41.94 31.905221 
L 168.975 214.340186 
L 296.01 60.522471 
L 423.045 225.071655 
" clip-path="url(#p3d6422c292)" style="fill: none; stroke: #c7f464; stroke-width: 1.5; stroke-linecap: square"/>
   </g>
   <g id="line2d_146">
    <path d="M 41.94 92.716876 
L 168.975 228.648811 
L 296.01 128.488438 
L 423.045 253.688904 
" clip-path="url(#p3d6422c292)" style="fill: none; stroke: #c7f464; stroke-width: 1.5; stroke-linecap: square"/>
   </g>
   <g id="line2d_147">
    <path d="M 41.94 60.522471 
L 168.975 192.877249 
L 296.01 103.448345 
L 423.045 225.071655 
" clip-path="url(#p3d6422c292)" style="fill: none; stroke: #c7f464; stroke-width: 1.5; stroke-linecap: square"/>
   </g>
   <g id="line2d_148">
    <path d="M 41.94 107.025501 
L 168.975 207.185874 
L 296.01 132.065594 
L 423.045 235.803124 
" clip-path="url(#p3d6422c292)" style="fill: none; stroke: #c7f464; stroke-width: 1.5; stroke-linecap: square"/>
   </g>
   <g id="line2d_149">
    <path d="M 41.94 31.905221 
L 168.975 207.185874 
L 296.01 67.676783 
L 423.045 235.803124 
" clip-path="url(#p3d6422c292)" style="fill: none; stroke: #c7f464; stroke-width: 1.5; stroke-linecap: square"/>
   </g>
   <g id="line2d_150">
    <path d="M 41.94 81.985408 
L 168.975 210.76303 
L 296.01 132.065594 
L 423.045 242.957436 
" clip-path="url(#p3d6422c292)" style="fill: none; stroke: #c7f464; stroke-width: 1.5; stroke-linecap: square"/>
   </g>
   <g id="line2d_151">
    <path d="M 41.94 67.676783 
L 168.975 189.300093 
L 296.01 103.448345 
L 423.045 232.225967 
" clip-path="url(#p3d6422c292)" style="fill: none; stroke: #c7f464; stroke-width: 1.5; stroke-linecap: square"/>
   </g>
   <g id="line2d_152">
    <path d="M 41.94 49.791002 
L 168.975 192.877249 
L 296.01 92.716876 
L 423.045 242.957436 
" clip-path="url(#p3d6422c292)" style="fill: none; stroke: #c7f464; stroke-width: 1.5; stroke-linecap: square"/>
   </g>
   <g id="line2d_153">
    <path d="M 41.94 85.562564 
L 168.975 207.185874 
L 296.01 135.642751 
L 423.045 242.957436 
" clip-path="url(#p3d6422c292)" style="fill: none; stroke: #c7f464; stroke-width: 1.5; stroke-linecap: square"/>
   </g>
   <g id="line2d_154">
    <path d="M 41.94 89.13972 
L 168.975 200.031562 
L 296.01 132.065594 
L 423.045 242.957436 
" clip-path="url(#p3d6422c292)" style="fill: none; stroke: #c7f464; stroke-width: 1.5; stroke-linecap: square"/>
   </g>
   <g id="line2d_155">
    <path d="M 41.94 78.408252 
L 168.975 207.185874 
L 296.01 107.025501 
L 423.045 232.225967 
" clip-path="url(#p3d6422c292)" style="fill: none; stroke: #c7f464; stroke-width: 1.5; stroke-linecap: square"/>
   </g>
   <g id="line2d_156">
    <path d="M 41.94 49.791002 
L 168.975 200.031562 
L 296.01 99.871189 
L 423.045 250.111748 
" clip-path="url(#p3d6422c292)" style="fill: none; stroke: #c7f464; stroke-width: 1.5; stroke-linecap: square"/>
   </g>
   <g id="line2d_157">
    <path d="M 41.94 42.63669 
L 168.975 207.185874 
L 296.01 89.13972 
L 423.045 239.38028 
" clip-path="url(#p3d6422c292)" style="fill: none; stroke: #c7f464; stroke-width: 1.5; stroke-linecap: square"/>
   </g>
   <g id="line2d_158">
    <path d="M 41.94 24.750909 
L 168.975 171.414312 
L 296.01 78.408252 
L 423.045 235.803124 
" clip-path="url(#p3d6422c292)" style="fill: none; stroke: #c7f464; stroke-width: 1.5; stroke-linecap: square"/>
   </g>
   <g id="line2d_159">
    <path d="M 41.94 78.408252 
L 168.975 207.185874 
L 296.01 107.025501 
L 423.045 228.648811 
" clip-path="url(#p3d6422c292)" style="fill: none; stroke: #c7f464; stroke-width: 1.5; stroke-linecap: square"/>
   </g>
   <g id="line2d_160">
    <path d="M 41.94 81.985408 
L 168.975 207.185874 
L 296.01 124.911282 
L 423.045 253.688904 
" clip-path="url(#p3d6422c292)" style="fill: none; stroke: #c7f464; stroke-width: 1.5; stroke-linecap: square"/>
   </g>
   <g id="line2d_161">
    <path d="M 41.94 89.13972 
L 168.975 214.340186 
L 296.01 107.025501 
L 423.045 257.266061 
" clip-path="url(#p3d6422c292)" style="fill: none; stroke: #c7f464; stroke-width: 1.5; stroke-linecap: square"/>
   </g>
   <g id="line2d_162">
    <path d="M 41.94 31.905221 
L 168.975 200.031562 
L 296.01 89.13972 
L 423.045 225.071655 
" clip-path="url(#p3d6422c292)" style="fill: none; stroke: #c7f464; stroke-width: 1.5; stroke-linecap: square"/>
   </g>
   <g id="line2d_163">
    <path d="M 41.94 81.985408 
L 168.975 185.722937 
L 296.01 107.025501 
L 423.045 221.494499 
" clip-path="url(#p3d6422c292)" style="fill: none; stroke: #c7f464; stroke-width: 1.5; stroke-linecap: square"/>
   </g>
   <g id="line2d_164">
    <path d="M 41.94 78.408252 
L 168.975 196.454406 
L 296.01 110.602657 
L 423.045 242.957436 
" clip-path="url(#p3d6422c292)" style="fill: none; stroke: #c7f464; stroke-width: 1.5; stroke-linecap: square"/>
   </g>
   <g id="line2d_165">
    <path d="M 41.94 92.716876 
L 168.975 200.031562 
L 296.01 135.642751 
L 423.045 242.957436 
" clip-path="url(#p3d6422c292)" style="fill: none; stroke: #c7f464; stroke-width: 1.5; stroke-linecap: square"/>
   </g>
   <g id="line2d_166">
    <path d="M 41.94 60.522471 
L 168.975 196.454406 
L 296.01 114.179814 
L 423.045 232.225967 
" clip-path="url(#p3d6422c292)" style="fill: none; stroke: #c7f464; stroke-width: 1.5; stroke-linecap: square"/>
   </g>
   <g id="line2d_167">
    <path d="M 41.94 67.676783 
L 168.975 196.454406 
L 296.01 107.025501 
L 423.045 221.494499 
" clip-path="url(#p3d6422c292)" style="fill: none; stroke: #c7f464; stroke-width: 1.5; stroke-linecap: square"/>
   </g>
   <g id="line2d_168">
    <path d="M 41.94 60.522471 
L 168.975 196.454406 
L 296.01 124.911282 
L 423.045 225.071655 
" clip-path="url(#p3d6422c292)" style="fill: none; stroke: #c7f464; stroke-width: 1.5; stroke-linecap: square"/>
   </g>
   <g id="line2d_169">
    <path d="M 41.94 99.871189 
L 168.975 210.76303 
L 296.01 124.911282 
L 423.045 239.38028 
" clip-path="url(#p3d6422c292)" style="fill: none; stroke: #c7f464; stroke-width: 1.5; stroke-linecap: square"/>
   </g>
   <g id="line2d_170">
    <path d="M 41.94 64.099627 
L 168.975 192.877249 
L 296.01 96.294033 
L 423.045 225.071655 
" clip-path="url(#p3d6422c292)" style="fill: none; stroke: #c7f464; stroke-width: 1.5; stroke-linecap: square"/>
   </g>
   <g id="line2d_171">
    <path d="M 41.94 67.676783 
L 168.975 189.300093 
L 296.01 103.448345 
L 423.045 217.917343 
" clip-path="url(#p3d6422c292)" style="fill: none; stroke: #c7f464; stroke-width: 1.5; stroke-linecap: square"/>
   </g>
   <g id="line2d_172">
    <path d="M 41.94 67.676783 
L 168.975 200.031562 
L 296.01 121.334126 
L 423.045 225.071655 
" clip-path="url(#p3d6422c292)" style="fill: none; stroke: #c7f464; stroke-width: 1.5; stroke-linecap: square"/>
   </g>
   <g id="line2d_173">
    <path d="M 41.94 81.985408 
L 168.975 217.917343 
L 296.01 128.488438 
L 423.045 239.38028 
" clip-path="url(#p3d6422c292)" style="fill: none; stroke: #c7f464; stroke-width: 1.5; stroke-linecap: square"/>
   </g>
   <g id="line2d_174">
    <path d="M 41.94 74.831096 
L 168.975 200.031562 
L 296.01 121.334126 
L 423.045 235.803124 
" clip-path="url(#p3d6422c292)" style="fill: none; stroke: #c7f464; stroke-width: 1.5; stroke-linecap: square"/>
   </g>
   <g id="line2d_175">
    <path d="M 41.94 85.562564 
L 168.975 185.722937 
L 296.01 114.179814 
L 423.045 225.071655 
" clip-path="url(#p3d6422c292)" style="fill: none; stroke: #c7f464; stroke-width: 1.5; stroke-linecap: square"/>
   </g>
   <g id="line2d_176">
    <path d="M 41.94 96.294033 
L 168.975 200.031562 
L 296.01 124.911282 
L 423.045 242.957436 
" clip-path="url(#p3d6422c292)" style="fill: none; stroke: #c7f464; stroke-width: 1.5; stroke-linecap: square"/>
   </g>
   <g id="line2d_177">
    <path d="M 41.94 317.72 
L 41.94 10.8 
" clip-path="url(#p3d6422c292)" style="fill: none; stroke: #000000; stroke-linecap: square"/>
   </g>
   <g id="line2d_178">
    <path d="M 168.975 317.72 
L 168.975 10.8 
" clip-path="url(#p3d6422c292)" style="fill: none; stroke: #000000; stroke-linecap: square"/>
   </g>
   <g id="line2d_179">
    <path d="M 296.01 317.72 
L 296.01 10.8 
" clip-path="url(#p3d6422c292)" style="fill: none; stroke: #000000; stroke-linecap: square"/>
   </g>
   <g id="line2d_180">
    <path d="M 423.045 317.72 
L 423.045 10.8 
" clip-path="url(#p3d6422c292)" style="fill: none; stroke: #000000; stroke-linecap: square"/>
   </g>
   <g id="patch_3">
    <path d="M 41.94 317.72 
L 41.94 10.8 
" style="fill: none; stroke: #000000; stroke-width: 0.8; stroke-linejoin: miter; stroke-linecap: square"/>
   </g>
   <g id="patch_4">
    <path d="M 423.045 317.72 
L 423.045 10.8 
" style="fill: none; stroke: #000000; stroke-width: 0.8; stroke-linejoin: miter; stroke-linecap: square"/>
   </g>
   <g id="patch_5">
    <path d="M 41.94 317.72 
L 423.045 317.72 
" style="fill: none; stroke: #000000; stroke-width: 0.8; stroke-linejoin: miter; stroke-linecap: square"/>
   </g>
   <g id="patch_6">
    <path d="M 41.94 10.8 
L 423.045 10.8 
" style="fill: none; stroke: #000000; stroke-width: 0.8; stroke-linejoin: miter; stroke-linecap: square"/>
   </g>
   <g id="legend_1">
    <g id="patch_7">
     <path d="M 316.855938 62.834375 
L 416.045 62.834375 
Q 418.045 62.834375 418.045 60.834375 
L 418.045 17.8 
Q 418.045 15.8 416.045 15.8 
L 316.855938 15.8 
Q 314.855938 15.8 314.855938 17.8 
L 314.855938 60.834375 
Q 314.855938 62.834375 316.855938 62.834375 
z
" style="fill: #ffffff; opacity: 0.8; stroke: #cccccc; stroke-linejoin: miter"/>
    </g>
    <g id="line2d_181">
     <path d="M 318.855938 23.898438 
L 328.855938 23.898438 
L 338.855938 23.898438 
" style="fill: none; stroke: #556270; stroke-width: 1.5; stroke-linecap: square"/>
    </g>
    <g id="text_14">
     <!-- Iris-setosa -->
     <g transform="translate(346.855938 27.398438) scale(0.1 -0.1)">
      <defs>
       <path id="DejaVuSans-49" d="M 628 4666 
L 1259 4666 
L 1259 0 
L 628 0 
L 628 4666 
z
" transform="scale(0.015625)"/>
       <path id="DejaVuSans-72" d="M 2631 2963 
Q 2534 3019 2420 3045 
Q 2306 3072 2169 3072 
Q 1681 3072 1420 2755 
Q 1159 2438 1159 1844 
L 1159 0 
L 581 0 
L 581 3500 
L 1159 3500 
L 1159 2956 
Q 1341 3275 1631 3429 
Q 1922 3584 2338 3584 
Q 2397 3584 2469 3576 
Q 2541 3569 2628 3553 
L 2631 2963 
z
" transform="scale(0.015625)"/>
       <path id="DejaVuSans-73" d="M 2834 3397 
L 2834 2853 
Q 2591 2978 2328 3040 
Q 2066 3103 1784 3103 
Q 1356 3103 1142 2972 
Q 928 2841 928 2578 
Q 928 2378 1081 2264 
Q 1234 2150 1697 2047 
L 1894 2003 
Q 2506 1872 2764 1633 
Q 3022 1394 3022 966 
Q 3022 478 2636 193 
Q 2250 -91 1575 -91 
Q 1294 -91 989 -36 
Q 684 19 347 128 
L 347 722 
Q 666 556 975 473 
Q 1284 391 1588 391 
Q 1994 391 2212 530 
Q 2431 669 2431 922 
Q 2431 1156 2273 1281 
Q 2116 1406 1581 1522 
L 1381 1569 
Q 847 1681 609 1914 
Q 372 2147 372 2553 
Q 372 3047 722 3315 
Q 1072 3584 1716 3584 
Q 2034 3584 2315 3537 
Q 2597 3491 2834 3397 
z
" transform="scale(0.015625)"/>
       <path id="DejaVuSans-2d" d="M 313 2009 
L 1997 2009 
L 1997 1497 
L 313 1497 
L 313 2009 
z
" transform="scale(0.015625)"/>
       <path id="DejaVuSans-6f" d="M 1959 3097 
Q 1497 3097 1228 2736 
Q 959 2375 959 1747 
Q 959 1119 1226 758 
Q 1494 397 1959 397 
Q 2419 397 2687 759 
Q 2956 1122 2956 1747 
Q 2956 2369 2687 2733 
Q 2419 3097 1959 3097 
z
M 1959 3584 
Q 2709 3584 3137 3096 
Q 3566 2609 3566 1747 
Q 3566 888 3137 398 
Q 2709 -91 1959 -91 
Q 1206 -91 779 398 
Q 353 888 353 1747 
Q 353 2609 779 3096 
Q 1206 3584 1959 3584 
z
" transform="scale(0.015625)"/>
      </defs>
      <use xlink:href="#DejaVuSans-49"/>
      <use xlink:href="#DejaVuSans-72" transform="translate(29.492188 0)"/>
      <use xlink:href="#DejaVuSans-69" transform="translate(70.605469 0)"/>
      <use xlink:href="#DejaVuSans-73" transform="translate(98.388672 0)"/>
      <use xlink:href="#DejaVuSans-2d" transform="translate(150.488281 0)"/>
      <use xlink:href="#DejaVuSans-73" transform="translate(186.572266 0)"/>
      <use xlink:href="#DejaVuSans-65" transform="translate(238.671875 0)"/>
      <use xlink:href="#DejaVuSans-74" transform="translate(300.195312 0)"/>
      <use xlink:href="#DejaVuSans-6f" transform="translate(339.404297 0)"/>
      <use xlink:href="#DejaVuSans-73" transform="translate(400.585938 0)"/>
      <use xlink:href="#DejaVuSans-61" transform="translate(452.685547 0)"/>
     </g>
    </g>
    <g id="line2d_182">
     <path d="M 318.855938 38.576563 
L 328.855938 38.576563 
L 338.855938 38.576563 
" style="fill: none; stroke: #4ecdc4; stroke-width: 1.5; stroke-linecap: square"/>
    </g>
    <g id="text_15">
     <!-- Iris-versicolor -->
     <g transform="translate(346.855938 42.076563) scale(0.1 -0.1)">
      <defs>
       <path id="DejaVuSans-76" d="M 191 3500 
L 800 3500 
L 1894 563 
L 2988 3500 
L 3597 3500 
L 2284 0 
L 1503 0 
L 191 3500 
z
" transform="scale(0.015625)"/>
       <path id="DejaVuSans-63" d="M 3122 3366 
L 3122 2828 
Q 2878 2963 2633 3030 
Q 2388 3097 2138 3097 
Q 1578 3097 1268 2742 
Q 959 2388 959 1747 
Q 959 1106 1268 751 
Q 1578 397 2138 397 
Q 2388 397 2633 464 
Q 2878 531 3122 666 
L 3122 134 
Q 2881 22 2623 -34 
Q 2366 -91 2075 -91 
Q 1284 -91 818 406 
Q 353 903 353 1747 
Q 353 2603 823 3093 
Q 1294 3584 2113 3584 
Q 2378 3584 2631 3529 
Q 2884 3475 3122 3366 
z
" transform="scale(0.015625)"/>
      </defs>
      <use xlink:href="#DejaVuSans-49"/>
      <use xlink:href="#DejaVuSans-72" transform="translate(29.492188 0)"/>
      <use xlink:href="#DejaVuSans-69" transform="translate(70.605469 0)"/>
      <use xlink:href="#DejaVuSans-73" transform="translate(98.388672 0)"/>
      <use xlink:href="#DejaVuSans-2d" transform="translate(150.488281 0)"/>
      <use xlink:href="#DejaVuSans-76" transform="translate(183.947266 0)"/>
      <use xlink:href="#DejaVuSans-65" transform="translate(243.126953 0)"/>
      <use xlink:href="#DejaVuSans-72" transform="translate(304.650391 0)"/>
      <use xlink:href="#DejaVuSans-73" transform="translate(345.763672 0)"/>
      <use xlink:href="#DejaVuSans-69" transform="translate(397.863281 0)"/>
      <use xlink:href="#DejaVuSans-63" transform="translate(425.646484 0)"/>
      <use xlink:href="#DejaVuSans-6f" transform="translate(480.626953 0)"/>
      <use xlink:href="#DejaVuSans-6c" transform="translate(541.808594 0)"/>
      <use xlink:href="#DejaVuSans-6f" transform="translate(569.591797 0)"/>
      <use xlink:href="#DejaVuSans-72" transform="translate(630.773438 0)"/>
     </g>
    </g>
    <g id="line2d_183">
     <path d="M 318.855938 53.254687 
L 328.855938 53.254687 
L 338.855938 53.254687 
" style="fill: none; stroke: #c7f464; stroke-width: 1.5; stroke-linecap: square"/>
    </g>
    <g id="text_16">
     <!-- Iris-virginica -->
     <g transform="translate(346.855938 56.754687) scale(0.1 -0.1)">
      <use xlink:href="#DejaVuSans-49"/>
      <use xlink:href="#DejaVuSans-72" transform="translate(29.492188 0)"/>
      <use xlink:href="#DejaVuSans-69" transform="translate(70.605469 0)"/>
      <use xlink:href="#DejaVuSans-73" transform="translate(98.388672 0)"/>
      <use xlink:href="#DejaVuSans-2d" transform="translate(150.488281 0)"/>
      <use xlink:href="#DejaVuSans-76" transform="translate(183.947266 0)"/>
      <use xlink:href="#DejaVuSans-69" transform="translate(243.126953 0)"/>
      <use xlink:href="#DejaVuSans-72" transform="translate(270.910156 0)"/>
      <use xlink:href="#DejaVuSans-67" transform="translate(310.273438 0)"/>
      <use xlink:href="#DejaVuSans-69" transform="translate(373.75 0)"/>
      <use xlink:href="#DejaVuSans-6e" transform="translate(401.533203 0)"/>
      <use xlink:href="#DejaVuSans-69" transform="translate(464.912109 0)"/>
      <use xlink:href="#DejaVuSans-63" transform="translate(492.695312 0)"/>
      <use xlink:href="#DejaVuSans-61" transform="translate(547.675781 0)"/>
     </g>
    </g>
   </g>
  </g>
 </g>
 <defs>
  <clipPath id="p3d6422c292">
   <rect x="41.94" y="10.8" width="381.105" height="306.92"/>
  </clipPath>
 </defs>
</svg>
