<?xml version="1.0" encoding="utf-8" standalone="no"?>
<!DOCTYPE svg PUBLIC "-//W3C//DTD SVG 1.1//EN"
  "http://www.w3.org/Graphics/SVG/1.1/DTD/svg11.dtd">
<svg xmlns:xlink="http://www.w3.org/1999/xlink" width="460.8pt" height="345.6pt" viewBox="0 0 460.8 345.6" xmlns="http://www.w3.org/2000/svg" version="1.1">
 <metadata>
  <rdf:RDF xmlns:dc="http://purl.org/dc/elements/1.1/" xmlns:cc="http://creativecommons.org/ns#" xmlns:rdf="http://www.w3.org/1999/02/22-rdf-syntax-ns#">
   <cc:Work>
    <dc:type rdf:resource="http://purl.org/dc/dcmitype/StillImage"/>
    <dc:date>2024-12-31T21:44:00.522177</dc:date>
    <dc:format>image/svg+xml</dc:format>
    <dc:creator>
     <cc:Agent>
      <dc:title>Matplotlib v3.7.5, https://matplotlib.org/</dc:title>
     </cc:Agent>
    </dc:creator>
   </cc:Work>
  </rdf:RDF>
 </metadata>
 <defs>
  <style type="text/css">*{stroke-linejoin: round; stroke-linecap: butt}</style>
 </defs>
 <g id="figure_1">
  <g id="patch_1">
   <path d="M 0 345.6 
L 460.8 345.6 
L 460.8 0 
L 0 0 
z
" style="fill: #ffffff"/>
  </g>
  <g id="axes_1">
   <g id="patch_2">
    <path d="M 42.765865 312.24351 
L 228.28101 312.24351 
L 228.28101 5.170101 
L 42.765865 5.170101 
z
" style="fill: #ffffff"/>
   </g>
   <g id="matplotlib.axis_1">
    <g id="xtick_1">
     <g id="line2d_1">
      <defs>
       <path id="m89cfa20912" d="M 0 0 
L 0 3.5 
" style="stroke: #000000; stroke-width: 0.8"/>
      </defs>
      <g>
       <use xlink:href="#m89cfa20912" x="51.198372" y="312.24351" style="stroke: #000000; stroke-width: 0.8"/>
      </g>
     </g>
     <g id="text_1">
      <!-- −4 -->
      <g transform="translate(43.827278 326.841947) scale(0.1 -0.1)">
       <defs>
        <path id="DejaVuSans-2212" d="M 678 2272 
L 4684 2272 
L 4684 1741 
L 678 1741 
L 678 2272 
z
" transform="scale(0.015625)"/>
        <path id="DejaVuSans-34" d="M 2419 4116 
L 825 1625 
L 2419 1625 
L 2419 4116 
z
M 2253 4666 
L 3047 4666 
L 3047 1625 
L 3713 1625 
L 3713 1100 
L 3047 1100 
L 3047 0 
L 2419 0 
L 2419 1100 
L 313 1100 
L 313 1709 
L 2253 4666 
z
" transform="scale(0.015625)"/>
       </defs>
       <use xlink:href="#DejaVuSans-2212"/>
       <use xlink:href="#DejaVuSans-34" x="83.789062"/>
      </g>
     </g>
    </g>
    <g id="xtick_2">
     <g id="line2d_2">
      <g>
       <use xlink:href="#m89cfa20912" x="93.894607" y="312.24351" style="stroke: #000000; stroke-width: 0.8"/>
      </g>
     </g>
     <g id="text_2">
      <!-- −2 -->
      <g transform="translate(86.523514 326.841947) scale(0.1 -0.1)">
       <defs>
        <path id="DejaVuSans-32" d="M 1228 531 
L 3431 531 
L 3431 0 
L 469 0 
L 469 531 
Q 828 903 1448 1529 
Q 2069 2156 2228 2338 
Q 2531 2678 2651 2914 
Q 2772 3150 2772 3378 
Q 2772 3750 2511 3984 
Q 2250 4219 1831 4219 
Q 1534 4219 1204 4116 
Q 875 4013 500 3803 
L 500 4441 
Q 881 4594 1212 4672 
Q 1544 4750 1819 4750 
Q 2544 4750 2975 4387 
Q 3406 4025 3406 3419 
Q 3406 3131 3298 2873 
Q 3191 2616 2906 2266 
Q 2828 2175 2409 1742 
Q 1991 1309 1228 531 
z
" transform="scale(0.015625)"/>
       </defs>
       <use xlink:href="#DejaVuSans-2212"/>
       <use xlink:href="#DejaVuSans-32" x="83.789062"/>
      </g>
     </g>
    </g>
    <g id="xtick_3">
     <g id="line2d_3">
      <g>
       <use xlink:href="#m89cfa20912" x="136.590843" y="312.24351" style="stroke: #000000; stroke-width: 0.8"/>
      </g>
     </g>
     <g id="text_3">
      <!-- 0 -->
      <g transform="translate(133.409593 326.841947) scale(0.1 -0.1)">
       <defs>
        <path id="DejaVuSans-30" d="M 2034 4250 
Q 1547 4250 1301 3770 
Q 1056 3291 1056 2328 
Q 1056 1369 1301 889 
Q 1547 409 2034 409 
Q 2525 409 2770 889 
Q 3016 1369 3016 2328 
Q 3016 3291 2770 3770 
Q 2525 4250 2034 4250 
z
M 2034 4750 
Q 2819 4750 3233 4129 
Q 3647 3509 3647 2328 
Q 3647 1150 3233 529 
Q 2819 -91 2034 -91 
Q 1250 -91 836 529 
Q 422 1150 422 2328 
Q 422 3509 836 4129 
Q 1250 4750 2034 4750 
z
" transform="scale(0.015625)"/>
       </defs>
       <use xlink:href="#DejaVuSans-30"/>
      </g>
     </g>
    </g>
    <g id="xtick_4">
     <g id="line2d_4">
      <g>
       <use xlink:href="#m89cfa20912" x="179.287079" y="312.24351" style="stroke: #000000; stroke-width: 0.8"/>
      </g>
     </g>
     <g id="text_4">
      <!-- 2 -->
      <g transform="translate(176.105829 326.841947) scale(0.1 -0.1)">
       <use xlink:href="#DejaVuSans-32"/>
      </g>
     </g>
    </g>
    <g id="xtick_5">
     <g id="line2d_5">
      <g>
       <use xlink:href="#m89cfa20912" x="221.983315" y="312.24351" style="stroke: #000000; stroke-width: 0.8"/>
      </g>
     </g>
     <g id="text_5">
      <!-- 4 -->
      <g transform="translate(218.802065 326.841947) scale(0.1 -0.1)">
       <use xlink:href="#DejaVuSans-34"/>
      </g>
     </g>
    </g>
    <g id="text_6">
     <!-- x bins [$V$] -->
     <g transform="translate(111.723438 340.520072) scale(0.1 -0.1)">
      <defs>
       <path id="DejaVuSans-78" d="M 3513 3500 
L 2247 1797 
L 3578 0 
L 2900 0 
L 1881 1375 
L 863 0 
L 184 0 
L 1544 1831 
L 300 3500 
L 978 3500 
L 1906 2253 
L 2834 3500 
L 3513 3500 
z
" transform="scale(0.015625)"/>
       <path id="DejaVuSans-20" transform="scale(0.015625)"/>
       <path id="DejaVuSans-62" d="M 3116 1747 
Q 3116 2381 2855 2742 
Q 2594 3103 2138 3103 
Q 1681 3103 1420 2742 
Q 1159 2381 1159 1747 
Q 1159 1113 1420 752 
Q 1681 391 2138 391 
Q 2594 391 2855 752 
Q 3116 1113 3116 1747 
z
M 1159 2969 
Q 1341 3281 1617 3432 
Q 1894 3584 2278 3584 
Q 2916 3584 3314 3078 
Q 3713 2572 3713 1747 
Q 3713 922 3314 415 
Q 2916 -91 2278 -91 
Q 1894 -91 1617 61 
Q 1341 213 1159 525 
L 1159 0 
L 581 0 
L 581 4863 
L 1159 4863 
L 1159 2969 
z
" transform="scale(0.015625)"/>
       <path id="DejaVuSans-69" d="M 603 3500 
L 1178 3500 
L 1178 0 
L 603 0 
L 603 3500 
z
M 603 4863 
L 1178 4863 
L 1178 4134 
L 603 4134 
L 603 4863 
z
" transform="scale(0.015625)"/>
       <path id="DejaVuSans-6e" d="M 3513 2113 
L 3513 0 
L 2938 0 
L 2938 2094 
Q 2938 2591 2744 2837 
Q 2550 3084 2163 3084 
Q 1697 3084 1428 2787 
Q 1159 2491 1159 1978 
L 1159 0 
L 581 0 
L 581 3500 
L 1159 3500 
L 1159 2956 
Q 1366 3272 1645 3428 
Q 1925 3584 2291 3584 
Q 2894 3584 3203 3211 
Q 3513 2838 3513 2113 
z
" transform="scale(0.015625)"/>
       <path id="DejaVuSans-73" d="M 2834 3397 
L 2834 2853 
Q 2591 2978 2328 3040 
Q 2066 3103 1784 3103 
Q 1356 3103 1142 2972 
Q 928 2841 928 2578 
Q 928 2378 1081 2264 
Q 1234 2150 1697 2047 
L 1894 2003 
Q 2506 1872 2764 1633 
Q 3022 1394 3022 966 
Q 3022 478 2636 193 
Q 2250 -91 1575 -91 
Q 1294 -91 989 -36 
Q 684 19 347 128 
L 347 722 
Q 666 556 975 473 
Q 1284 391 1588 391 
Q 1994 391 2212 530 
Q 2431 669 2431 922 
Q 2431 1156 2273 1281 
Q 2116 1406 1581 1522 
L 1381 1569 
Q 847 1681 609 1914 
Q 372 2147 372 2553 
Q 372 3047 722 3315 
Q 1072 3584 1716 3584 
Q 2034 3584 2315 3537 
Q 2597 3491 2834 3397 
z
" transform="scale(0.015625)"/>
       <path id="DejaVuSans-5b" d="M 550 4863 
L 1875 4863 
L 1875 4416 
L 1125 4416 
L 1125 -397 
L 1875 -397 
L 1875 -844 
L 550 -844 
L 550 4863 
z
" transform="scale(0.015625)"/>
       <path id="DejaVuSans-Oblique-56" d="M 1319 0 
L 500 4666 
L 1119 4666 
L 1797 653 
L 4063 4666 
L 4750 4666 
L 2053 0 
L 1319 0 
z
" transform="scale(0.015625)"/>
       <path id="DejaVuSans-5d" d="M 1947 4863 
L 1947 -844 
L 622 -844 
L 622 -397 
L 1369 -397 
L 1369 4416 
L 622 4416 
L 622 4863 
L 1947 4863 
z
" transform="scale(0.015625)"/>
      </defs>
      <use xlink:href="#DejaVuSans-78" transform="translate(0 0.015625)"/>
      <use xlink:href="#DejaVuSans-20" transform="translate(59.179688 0.015625)"/>
      <use xlink:href="#DejaVuSans-62" transform="translate(90.966797 0.015625)"/>
      <use xlink:href="#DejaVuSans-69" transform="translate(154.443359 0.015625)"/>
      <use xlink:href="#DejaVuSans-6e" transform="translate(182.226562 0.015625)"/>
      <use xlink:href="#DejaVuSans-73" transform="translate(245.605469 0.015625)"/>
      <use xlink:href="#DejaVuSans-20" transform="translate(297.705078 0.015625)"/>
      <use xlink:href="#DejaVuSans-5b" transform="translate(329.492188 0.015625)"/>
      <use xlink:href="#DejaVuSans-Oblique-56" transform="translate(368.505859 0.015625)"/>
      <use xlink:href="#DejaVuSans-5d" transform="translate(436.914062 0.015625)"/>
     </g>
    </g>
   </g>
   <g id="matplotlib.axis_2">
    <g id="ytick_1">
     <g id="line2d_6">
      <defs>
       <path id="mc1c478fe09" d="M 0 0 
L -3.5 0 
" style="stroke: #000000; stroke-width: 0.8"/>
      </defs>
      <g>
       <use xlink:href="#mc1c478fe09" x="42.765865" y="312.24351" style="stroke: #000000; stroke-width: 0.8"/>
      </g>
     </g>
     <g id="text_7">
      <!-- 0 -->
      <g transform="translate(29.403365 316.042729) scale(0.1 -0.1)">
       <use xlink:href="#DejaVuSans-30"/>
      </g>
     </g>
    </g>
    <g id="ytick_2">
     <g id="line2d_7">
      <g>
       <use xlink:href="#mc1c478fe09" x="42.765865" y="251.154709" style="stroke: #000000; stroke-width: 0.8"/>
      </g>
     </g>
     <g id="text_8">
      <!-- 100 -->
      <g transform="translate(16.678365 254.953928) scale(0.1 -0.1)">
       <defs>
        <path id="DejaVuSans-31" d="M 794 531 
L 1825 531 
L 1825 4091 
L 703 3866 
L 703 4441 
L 1819 4666 
L 2450 4666 
L 2450 531 
L 3481 531 
L 3481 0 
L 794 0 
L 794 531 
z
" transform="scale(0.015625)"/>
       </defs>
       <use xlink:href="#DejaVuSans-31"/>
       <use xlink:href="#DejaVuSans-30" x="63.623047"/>
       <use xlink:href="#DejaVuSans-30" x="127.246094"/>
      </g>
     </g>
    </g>
    <g id="ytick_3">
     <g id="line2d_8">
      <g>
       <use xlink:href="#mc1c478fe09" x="42.765865" y="190.065908" style="stroke: #000000; stroke-width: 0.8"/>
      </g>
     </g>
     <g id="text_9">
      <!-- 200 -->
      <g transform="translate(16.678365 193.865127) scale(0.1 -0.1)">
       <use xlink:href="#DejaVuSans-32"/>
       <use xlink:href="#DejaVuSans-30" x="63.623047"/>
       <use xlink:href="#DejaVuSans-30" x="127.246094"/>
      </g>
     </g>
    </g>
    <g id="ytick_4">
     <g id="line2d_9">
      <g>
       <use xlink:href="#mc1c478fe09" x="42.765865" y="128.977108" style="stroke: #000000; stroke-width: 0.8"/>
      </g>
     </g>
     <g id="text_10">
      <!-- 300 -->
      <g transform="translate(16.678365 132.776326) scale(0.1 -0.1)">
       <defs>
        <path id="DejaVuSans-33" d="M 2597 2516 
Q 3050 2419 3304 2112 
Q 3559 1806 3559 1356 
Q 3559 666 3084 287 
Q 2609 -91 1734 -91 
Q 1441 -91 1130 -33 
Q 819 25 488 141 
L 488 750 
Q 750 597 1062 519 
Q 1375 441 1716 441 
Q 2309 441 2620 675 
Q 2931 909 2931 1356 
Q 2931 1769 2642 2001 
Q 2353 2234 1838 2234 
L 1294 2234 
L 1294 2753 
L 1863 2753 
Q 2328 2753 2575 2939 
Q 2822 3125 2822 3475 
Q 2822 3834 2567 4026 
Q 2313 4219 1838 4219 
Q 1578 4219 1281 4162 
Q 984 4106 628 3988 
L 628 4550 
Q 988 4650 1302 4700 
Q 1616 4750 1894 4750 
Q 2613 4750 3031 4423 
Q 3450 4097 3450 3541 
Q 3450 3153 3228 2886 
Q 3006 2619 2597 2516 
z
" transform="scale(0.015625)"/>
       </defs>
       <use xlink:href="#DejaVuSans-33"/>
       <use xlink:href="#DejaVuSans-30" x="63.623047"/>
       <use xlink:href="#DejaVuSans-30" x="127.246094"/>
      </g>
     </g>
    </g>
    <g id="ytick_5">
     <g id="line2d_10">
      <g>
       <use xlink:href="#mc1c478fe09" x="42.765865" y="67.888307" style="stroke: #000000; stroke-width: 0.8"/>
      </g>
     </g>
     <g id="text_11">
      <!-- 400 -->
      <g transform="translate(16.678365 71.687526) scale(0.1 -0.1)">
       <use xlink:href="#DejaVuSans-34"/>
       <use xlink:href="#DejaVuSans-30" x="63.623047"/>
       <use xlink:href="#DejaVuSans-30" x="127.246094"/>
      </g>
     </g>
    </g>
    <g id="ytick_6">
     <g id="line2d_11">
      <g>
       <use xlink:href="#mc1c478fe09" x="42.765865" y="6.799506" style="stroke: #000000; stroke-width: 0.8"/>
      </g>
     </g>
     <g id="text_12">
      <!-- 500 -->
      <g transform="translate(16.678365 10.598725) scale(0.1 -0.1)">
       <defs>
        <path id="DejaVuSans-35" d="M 691 4666 
L 3169 4666 
L 3169 4134 
L 1269 4134 
L 1269 2991 
Q 1406 3038 1543 3061 
Q 1681 3084 1819 3084 
Q 2600 3084 3056 2656 
Q 3513 2228 3513 1497 
Q 3513 744 3044 326 
Q 2575 -91 1722 -91 
Q 1428 -91 1123 -41 
Q 819 9 494 109 
L 494 744 
Q 775 591 1075 516 
Q 1375 441 1709 441 
Q 2250 441 2565 725 
Q 2881 1009 2881 1497 
Q 2881 1984 2565 2268 
Q 2250 2553 1709 2553 
Q 1456 2553 1204 2497 
Q 953 2441 691 2322 
L 691 4666 
z
" transform="scale(0.015625)"/>
       </defs>
       <use xlink:href="#DejaVuSans-35"/>
       <use xlink:href="#DejaVuSans-30" x="63.623047"/>
       <use xlink:href="#DejaVuSans-30" x="127.246094"/>
      </g>
     </g>
    </g>
    <g id="text_13">
     <!-- Count per bin -->
     <g transform="translate(10.598678 192.771649) rotate(-90) scale(0.1 -0.1)">
      <defs>
       <path id="DejaVuSans-43" d="M 4122 4306 
L 4122 3641 
Q 3803 3938 3442 4084 
Q 3081 4231 2675 4231 
Q 1875 4231 1450 3742 
Q 1025 3253 1025 2328 
Q 1025 1406 1450 917 
Q 1875 428 2675 428 
Q 3081 428 3442 575 
Q 3803 722 4122 1019 
L 4122 359 
Q 3791 134 3420 21 
Q 3050 -91 2638 -91 
Q 1578 -91 968 557 
Q 359 1206 359 2328 
Q 359 3453 968 4101 
Q 1578 4750 2638 4750 
Q 3056 4750 3426 4639 
Q 3797 4528 4122 4306 
z
" transform="scale(0.015625)"/>
       <path id="DejaVuSans-6f" d="M 1959 3097 
Q 1497 3097 1228 2736 
Q 959 2375 959 1747 
Q 959 1119 1226 758 
Q 1494 397 1959 397 
Q 2419 397 2687 759 
Q 2956 1122 2956 1747 
Q 2956 2369 2687 2733 
Q 2419 3097 1959 3097 
z
M 1959 3584 
Q 2709 3584 3137 3096 
Q 3566 2609 3566 1747 
Q 3566 888 3137 398 
Q 2709 -91 1959 -91 
Q 1206 -91 779 398 
Q 353 888 353 1747 
Q 353 2609 779 3096 
Q 1206 3584 1959 3584 
z
" transform="scale(0.015625)"/>
       <path id="DejaVuSans-75" d="M 544 1381 
L 544 3500 
L 1119 3500 
L 1119 1403 
Q 1119 906 1312 657 
Q 1506 409 1894 409 
Q 2359 409 2629 706 
Q 2900 1003 2900 1516 
L 2900 3500 
L 3475 3500 
L 3475 0 
L 2900 0 
L 2900 538 
Q 2691 219 2414 64 
Q 2138 -91 1772 -91 
Q 1169 -91 856 284 
Q 544 659 544 1381 
z
M 1991 3584 
L 1991 3584 
z
" transform="scale(0.015625)"/>
       <path id="DejaVuSans-74" d="M 1172 4494 
L 1172 3500 
L 2356 3500 
L 2356 3053 
L 1172 3053 
L 1172 1153 
Q 1172 725 1289 603 
Q 1406 481 1766 481 
L 2356 481 
L 2356 0 
L 1766 0 
Q 1100 0 847 248 
Q 594 497 594 1153 
L 594 3053 
L 172 3053 
L 172 3500 
L 594 3500 
L 594 4494 
L 1172 4494 
z
" transform="scale(0.015625)"/>
       <path id="DejaVuSans-70" d="M 1159 525 
L 1159 -1331 
L 581 -1331 
L 581 3500 
L 1159 3500 
L 1159 2969 
Q 1341 3281 1617 3432 
Q 1894 3584 2278 3584 
Q 2916 3584 3314 3078 
Q 3713 2572 3713 1747 
Q 3713 922 3314 415 
Q 2916 -91 2278 -91 
Q 1894 -91 1617 61 
Q 1341 213 1159 525 
z
M 3116 1747 
Q 3116 2381 2855 2742 
Q 2594 3103 2138 3103 
Q 1681 3103 1420 2742 
Q 1159 2381 1159 1747 
Q 1159 1113 1420 752 
Q 1681 391 2138 391 
Q 2594 391 2855 752 
Q 3116 1113 3116 1747 
z
" transform="scale(0.015625)"/>
       <path id="DejaVuSans-65" d="M 3597 1894 
L 3597 1613 
L 953 1613 
Q 991 1019 1311 708 
Q 1631 397 2203 397 
Q 2534 397 2845 478 
Q 3156 559 3463 722 
L 3463 178 
Q 3153 47 2828 -22 
Q 2503 -91 2169 -91 
Q 1331 -91 842 396 
Q 353 884 353 1716 
Q 353 2575 817 3079 
Q 1281 3584 2069 3584 
Q 2775 3584 3186 3129 
Q 3597 2675 3597 1894 
z
M 3022 2063 
Q 3016 2534 2758 2815 
Q 2500 3097 2075 3097 
Q 1594 3097 1305 2825 
Q 1016 2553 972 2059 
L 3022 2063 
z
" transform="scale(0.015625)"/>
       <path id="DejaVuSans-72" d="M 2631 2963 
Q 2534 3019 2420 3045 
Q 2306 3072 2169 3072 
Q 1681 3072 1420 2755 
Q 1159 2438 1159 1844 
L 1159 0 
L 581 0 
L 581 3500 
L 1159 3500 
L 1159 2956 
Q 1341 3275 1631 3429 
Q 1922 3584 2338 3584 
Q 2397 3584 2469 3576 
Q 2541 3569 2628 3553 
L 2631 2963 
z
" transform="scale(0.015625)"/>
      </defs>
      <use xlink:href="#DejaVuSans-43"/>
      <use xlink:href="#DejaVuSans-6f" x="69.824219"/>
      <use xlink:href="#DejaVuSans-75" x="131.005859"/>
      <use xlink:href="#DejaVuSans-6e" x="194.384766"/>
      <use xlink:href="#DejaVuSans-74" x="257.763672"/>
      <use xlink:href="#DejaVuSans-20" x="296.972656"/>
      <use xlink:href="#DejaVuSans-70" x="328.759766"/>
      <use xlink:href="#DejaVuSans-65" x="392.236328"/>
      <use xlink:href="#DejaVuSans-72" x="453.759766"/>
      <use xlink:href="#DejaVuSans-20" x="494.873047"/>
      <use xlink:href="#DejaVuSans-62" x="526.660156"/>
      <use xlink:href="#DejaVuSans-69" x="590.136719"/>
      <use xlink:href="#DejaVuSans-6e" x="617.919922"/>
     </g>
    </g>
   </g>
   <g id="line2d_12">
    <path d="M 51.198372 312.235334 
L 53.333183 312.231374 
L 55.467995 312.225675 
L 57.602807 312.217561 
L 59.737619 312.20613 
L 61.872431 312.190199 
L 64.007242 312.168235 
L 66.142054 312.13828 
L 68.276866 312.097869 
L 70.411678 312.043944 
L 72.54649 311.972774 
L 74.681301 311.879877 
L 76.816113 311.759965 
L 78.950925 311.606908 
L 81.085737 311.413743 
L 83.220549 311.172727 
L 85.35536 310.875455 
L 87.490172 310.513045 
L 89.624984 310.07641 
L 91.759796 309.556605 
L 93.894607 308.945267 
L 96.029419 308.235119 
L 98.164231 307.42054 
L 100.299043 306.498165 
L 102.433855 305.467489 
L 104.568666 304.331435 
L 106.703478 303.096839 
L 108.83829 301.774808 
L 110.973102 300.380917 
L 113.107914 298.935182 
L 115.242725 297.461809 
L 117.377537 295.988681 
L 119.512349 294.5466 
L 121.647161 293.168292 
L 123.781973 291.887219 
L 125.916784 290.736261 
L 128.051596 289.746329 
L 130.186408 288.944986 
L 132.32122 288.355181 
L 134.456032 287.994155 
L 136.590843 287.872605 
L 138.725655 287.994155 
L 140.860467 288.355181 
L 142.995279 288.944986 
L 145.130091 289.746329 
L 147.264902 290.736261 
L 149.399714 291.887219 
L 151.534526 293.168292 
L 153.669338 294.5466 
L 155.80415 295.988681 
L 157.938961 297.461809 
L 160.073773 298.935182 
L 162.208585 300.380917 
L 164.343397 301.774808 
L 166.478209 303.096839 
L 168.61302 304.331435 
L 170.747832 305.467489 
L 172.882644 306.498165 
L 175.017456 307.42054 
L 177.152268 308.235119 
L 179.287079 308.945267 
L 181.421891 309.556605 
L 183.556703 310.07641 
L 185.691515 310.513045 
L 187.826326 310.875455 
L 189.961138 311.172727 
L 192.09595 311.413743 
L 194.230762 311.606908 
L 196.365574 311.759965 
L 198.500385 311.879877 
L 200.635197 311.972774 
L 202.770009 312.043944 
L 204.904821 312.097869 
L 207.039633 312.13828 
L 209.174444 312.168235 
L 211.309256 312.190199 
L 213.444068 312.20613 
L 215.57888 312.217561 
L 217.713692 312.225675 
L 219.848503 312.231374 
" clip-path="url(#p2eed167902)" style="fill: none; stroke-dasharray: 5.55,2.4; stroke-dashoffset: 0; stroke: #1f77b4; stroke-width: 1.5"/>
   </g>
   <g id="patch_3">
    <path d="M 51.198372 312.24351 
L 59.737619 312.24351 
L 59.737619 311.632622 
L 64.007242 311.632622 
L 64.007242 312.24351 
L 68.276866 312.24351 
L 68.276866 311.632622 
L 72.54649 311.632622 
L 72.54649 312.24351 
L 78.950925 312.24351 
L 78.950925 311.021734 
L 81.085737 311.021734 
L 81.085737 312.24351 
L 83.220549 312.24351 
L 83.220549 310.410846 
L 85.35536 310.410846 
L 85.35536 309.18907 
L 87.490172 309.18907 
L 87.490172 310.410846 
L 91.759796 310.410846 
L 91.759796 309.799958 
L 93.894607 309.799958 
L 93.894607 306.745518 
L 96.029419 306.745518 
L 96.029419 306.13463 
L 98.164231 306.13463 
L 98.164231 304.912854 
L 100.299043 304.912854 
L 100.299043 306.13463 
L 102.433855 306.13463 
L 102.433855 304.301966 
L 104.568666 304.301966 
L 104.568666 302.469302 
L 106.703478 302.469302 
L 106.703478 300.636638 
L 108.83829 300.636638 
L 108.83829 295.749534 
L 110.973102 295.749534 
L 110.973102 301.247526 
L 113.107914 301.247526 
L 113.107914 300.636638 
L 117.377537 300.636638 
L 117.377537 296.360422 
L 119.512349 296.360422 
L 119.512349 295.749534 
L 121.647161 295.749534 
L 121.647161 287.197102 
L 123.781973 287.197102 
L 123.781973 287.80799 
L 125.916784 287.80799 
L 125.916784 292.084206 
L 128.051596 292.084206 
L 128.051596 290.86243 
L 130.186408 290.86243 
L 130.186408 293.305982 
L 132.32122 293.305982 
L 132.32122 284.75355 
L 136.590843 284.75355 
L 136.590843 289.029766 
L 138.725655 289.029766 
L 138.725655 286.586214 
L 140.860467 286.586214 
L 140.860467 289.640654 
L 142.995279 289.640654 
L 142.995279 289.029766 
L 145.130091 289.029766 
L 145.130091 301.247526 
L 147.264902 301.247526 
L 147.264902 295.138646 
L 149.399714 295.138646 
L 149.399714 293.91687 
L 151.534526 293.91687 
L 151.534526 290.86243 
L 153.669338 290.86243 
L 153.669338 295.138646 
L 155.80415 295.138646 
L 155.80415 296.360422 
L 157.938961 296.360422 
L 157.938961 300.02575 
L 160.073773 300.02575 
L 160.073773 297.582198 
L 162.208585 297.582198 
L 162.208585 300.636638 
L 164.343397 300.636638 
L 164.343397 297.582198 
L 166.478209 297.582198 
L 166.478209 304.301966 
L 168.61302 304.301966 
L 168.61302 306.745518 
L 170.747832 306.745518 
L 170.747832 304.301966 
L 172.882644 304.301966 
L 172.882644 308.578182 
L 175.017456 308.578182 
L 175.017456 311.021734 
L 177.152268 311.021734 
L 177.152268 309.18907 
L 179.287079 309.18907 
L 179.287079 307.967294 
L 181.421891 307.967294 
L 181.421891 311.021734 
L 183.556703 311.021734 
L 183.556703 310.410846 
L 187.826326 310.410846 
L 187.826326 309.799958 
L 189.961138 309.799958 
L 189.961138 311.021734 
L 194.230762 311.021734 
L 194.230762 311.632622 
L 196.365574 311.632622 
L 196.365574 312.24351 
L 200.635197 312.24351 
L 200.635197 311.632622 
L 202.770009 311.632622 
L 202.770009 312.24351 
L 204.904821 312.24351 
L 204.904821 311.632622 
L 207.039633 311.632622 
L 207.039633 312.24351 
L 219.848503 312.24351 
L 219.848503 312.24351 
" clip-path="url(#p2eed167902)" style="fill: none; stroke: #1f77b4; stroke-linejoin: miter"/>
   </g>
   <g id="line2d_13">
    <path d="M 51.198372 312.210808 
L 53.333183 312.194968 
L 55.467995 312.172171 
L 57.602807 312.139713 
L 59.737619 312.093989 
L 61.872431 312.030265 
L 64.007242 311.942411 
L 66.142054 311.822591 
L 68.276866 311.660946 
L 70.411678 311.445246 
L 72.54649 311.160565 
L 74.681301 310.788978 
L 76.816113 310.309328 
L 78.950925 309.6971 
L 81.085737 308.924441 
L 83.220549 307.960379 
L 85.35536 306.77129 
L 87.490172 305.321651 
L 89.624984 303.575109 
L 91.759796 301.495889 
L 93.894607 299.050536 
L 96.029419 296.209944 
L 98.164231 292.951628 
L 100.299043 289.262129 
L 102.433855 285.139427 
L 104.568666 280.595212 
L 106.703478 275.656825 
L 108.83829 270.368703 
L 110.973102 264.793137 
L 113.107914 259.010197 
L 115.242725 253.116704 
L 117.377537 247.224195 
L 119.512349 241.455872 
L 121.647161 235.942637 
L 123.781973 230.818344 
L 125.916784 226.214516 
L 128.051596 222.254785 
L 130.186408 219.049413 
L 132.32122 216.690193 
L 134.456032 215.24609 
L 136.590843 214.759888 
L 138.725655 215.24609 
L 140.860467 216.690193 
L 142.995279 219.049413 
L 145.130091 222.254785 
L 147.264902 226.214516 
L 149.399714 230.818344 
L 151.534526 235.942637 
L 153.669338 241.455872 
L 155.80415 247.224195 
L 157.938961 253.116704 
L 160.073773 259.010197 
L 162.208585 264.793137 
L 164.343397 270.368703 
L 166.478209 275.656825 
L 168.61302 280.595212 
L 170.747832 285.139427 
L 172.882644 289.262129 
L 175.017456 292.951628 
L 177.152268 296.209944 
L 179.287079 299.050536 
L 181.421891 301.495889 
L 183.556703 303.575109 
L 185.691515 305.321651 
L 187.826326 306.77129 
L 189.961138 307.960379 
L 192.09595 308.924441 
L 194.230762 309.6971 
L 196.365574 310.309328 
L 198.500385 310.788978 
L 200.635197 311.160565 
L 202.770009 311.445246 
L 204.904821 311.660946 
L 207.039633 311.822591 
L 209.174444 311.942411 
L 211.309256 312.030265 
L 213.444068 312.093989 
L 215.57888 312.139713 
L 217.713692 312.172171 
L 219.848503 312.194968 
" clip-path="url(#p2eed167902)" style="fill: none; stroke-dasharray: 5.55,2.4; stroke-dashoffset: 0; stroke: #ff7f0e; stroke-width: 1.5"/>
   </g>
   <g id="patch_4">
    <path d="M 51.198372 312.24351 
L 51.198372 312.24351 
L 59.737619 312.24351 
L 59.737619 311.021734 
L 68.276866 311.021734 
L 68.276866 311.021734 
L 76.816113 311.021734 
L 76.816113 309.18907 
L 85.35536 309.18907 
L 85.35536 303.08019 
L 93.894607 303.08019 
L 93.894607 287.197102 
L 102.433855 287.197102 
L 102.433855 266.426909 
L 110.973102 266.426909 
L 110.973102 262.150693 
L 119.512349 262.150693 
L 119.512349 226.108301 
L 128.051596 226.108301 
L 128.051596 216.944981 
L 136.590843 216.944981 
L 136.590843 217.555869 
L 145.130091 217.555869 
L 145.130091 244.434941 
L 153.669338 244.434941 
L 153.669338 252.376485 
L 162.208585 252.376485 
L 162.208585 272.53579 
L 170.747832 272.53579 
L 170.747832 296.360422 
L 179.287079 296.360422 
L 179.287079 303.08019 
L 187.826326 303.08019 
L 187.826326 306.745518 
L 196.365574 306.745518 
L 196.365574 311.632622 
L 204.904821 311.632622 
L 204.904821 311.632622 
L 213.444068 311.632622 
L 213.444068 312.24351 
" clip-path="url(#p2eed167902)" style="fill: none; stroke: #ff7f0e; stroke-linejoin: miter"/>
   </g>
   <g id="line2d_14">
    <path d="M 51.198372 312.145404 
L 53.333183 312.097883 
L 55.467995 312.029494 
L 57.602807 311.932118 
L 59.737619 311.794946 
L 61.872431 311.603776 
L 64.007242 311.340213 
L 66.142054 310.980754 
L 68.276866 310.495817 
L 70.411678 309.848717 
L 72.54649 308.994674 
L 74.681301 307.879913 
L 76.816113 306.440965 
L 78.950925 304.604281 
L 81.085737 302.286302 
L 83.220549 299.394116 
L 85.35536 295.82685 
L 87.490172 291.477933 
L 89.624984 286.238306 
L 91.759796 280.000648 
L 93.894607 272.664589 
L 96.029419 264.142813 
L 98.164231 254.367864 
L 100.299043 243.299366 
L 102.433855 230.931261 
L 104.568666 217.298615 
L 106.703478 202.483454 
L 108.83829 186.619089 
L 110.973102 169.892391 
L 113.107914 152.543571 
L 115.242725 134.863093 
L 117.377537 117.185564 
L 119.512349 99.880595 
L 121.647161 83.34089 
L 123.781973 67.968013 
L 125.916784 54.156527 
L 128.051596 42.277335 
L 130.186408 32.661219 
L 132.32122 25.583559 
L 134.456032 21.251249 
L 136.590843 19.792644 
L 138.725655 21.251249 
L 140.860467 25.583559 
L 142.995279 32.661219 
L 145.130091 42.277335 
L 147.264902 54.156527 
L 149.399714 67.968013 
L 151.534526 83.34089 
L 153.669338 99.880595 
L 155.80415 117.185564 
L 157.938961 134.863093 
L 160.073773 152.543571 
L 162.208585 169.892391 
L 164.343397 186.619089 
L 166.478209 202.483454 
L 168.61302 217.298615 
L 170.747832 230.931261 
L 172.882644 243.299366 
L 175.017456 254.367864 
L 177.152268 264.142813 
L 179.287079 272.664589 
L 181.421891 280.000648 
L 183.556703 286.238306 
L 185.691515 291.477933 
L 187.826326 295.82685 
L 189.961138 299.394116 
L 192.09595 302.286302 
L 194.230762 304.604281 
L 196.365574 306.440965 
L 198.500385 307.879913 
L 200.635197 308.994674 
L 202.770009 309.848717 
L 204.904821 310.495817 
L 207.039633 310.980754 
L 209.174444 311.340213 
L 211.309256 311.603776 
L 213.444068 311.794946 
L 215.57888 311.932118 
L 217.713692 312.029494 
L 219.848503 312.097883 
" clip-path="url(#p2eed167902)" style="fill: none; stroke-dasharray: 5.55,2.4; stroke-dashoffset: 0; stroke: #2ca02c; stroke-width: 1.5"/>
   </g>
   <g id="patch_5">
    <path d="M 51.198372 312.24351 
L 51.198372 309.799958 
L 76.816113 309.799958 
L 76.816113 274.979342 
L 102.433855 274.979342 
L 102.433855 130.198884 
L 128.051596 130.198884 
L 128.051596 54.448771 
L 153.669338 54.448771 
L 153.669338 196.785677 
L 179.287079 196.785677 
L 179.287079 296.97131 
L 204.904821 296.97131 
L 204.904821 312.24351 
" clip-path="url(#p2eed167902)" style="fill: none; stroke: #2ca02c; stroke-linejoin: miter"/>
   </g>
   <g id="patch_6">
    <path d="M 42.765865 312.24351 
L 42.765865 5.170101 
" style="fill: none; stroke: #000000; stroke-width: 0.8; stroke-linejoin: miter; stroke-linecap: square"/>
   </g>
   <g id="patch_7">
    <path d="M 228.28101 312.24351 
L 228.28101 5.170101 
" style="fill: none; stroke: #000000; stroke-width: 0.8; stroke-linejoin: miter; stroke-linecap: square"/>
   </g>
   <g id="patch_8">
    <path d="M 42.765865 312.24351 
L 228.28101 312.24351 
" style="fill: none; stroke: #000000; stroke-width: 0.8; stroke-linejoin: miter; stroke-linecap: square"/>
   </g>
   <g id="patch_9">
    <path d="M 42.765865 5.170101 
L 228.28101 5.170101 
" style="fill: none; stroke: #000000; stroke-width: 0.8; stroke-linejoin: miter; stroke-linecap: square"/>
   </g>
  </g>
  <g id="axes_2">
   <g id="patch_10">
    <path d="M 272.284615 312.24351 
L 457.79976 312.24351 
L 457.79976 5.170101 
L 272.284615 5.170101 
z
" style="fill: #ffffff"/>
   </g>
   <g id="matplotlib.axis_3">
    <g id="xtick_6">
     <g id="line2d_15">
      <g>
       <use xlink:href="#m89cfa20912" x="280.717122" y="312.24351" style="stroke: #000000; stroke-width: 0.8"/>
      </g>
     </g>
     <g id="text_14">
      <!-- −4 -->
      <g transform="translate(273.346028 326.841947) scale(0.1 -0.1)">
       <use xlink:href="#DejaVuSans-2212"/>
       <use xlink:href="#DejaVuSans-34" x="83.789062"/>
      </g>
     </g>
    </g>
    <g id="xtick_7">
     <g id="line2d_16">
      <g>
       <use xlink:href="#m89cfa20912" x="323.413357" y="312.24351" style="stroke: #000000; stroke-width: 0.8"/>
      </g>
     </g>
     <g id="text_15">
      <!-- −2 -->
      <g transform="translate(316.042264 326.841947) scale(0.1 -0.1)">
       <use xlink:href="#DejaVuSans-2212"/>
       <use xlink:href="#DejaVuSans-32" x="83.789062"/>
      </g>
     </g>
    </g>
    <g id="xtick_8">
     <g id="line2d_17">
      <g>
       <use xlink:href="#m89cfa20912" x="366.109593" y="312.24351" style="stroke: #000000; stroke-width: 0.8"/>
      </g>
     </g>
     <g id="text_16">
      <!-- 0 -->
      <g transform="translate(362.928343 326.841947) scale(0.1 -0.1)">
       <use xlink:href="#DejaVuSans-30"/>
      </g>
     </g>
    </g>
    <g id="xtick_9">
     <g id="line2d_18">
      <g>
       <use xlink:href="#m89cfa20912" x="408.805829" y="312.24351" style="stroke: #000000; stroke-width: 0.8"/>
      </g>
     </g>
     <g id="text_17">
      <!-- 2 -->
      <g transform="translate(405.624579 326.841947) scale(0.1 -0.1)">
       <use xlink:href="#DejaVuSans-32"/>
      </g>
     </g>
    </g>
    <g id="xtick_10">
     <g id="line2d_19">
      <g>
       <use xlink:href="#m89cfa20912" x="451.502065" y="312.24351" style="stroke: #000000; stroke-width: 0.8"/>
      </g>
     </g>
     <g id="text_18">
      <!-- 4 -->
      <g transform="translate(448.320815 326.841947) scale(0.1 -0.1)">
       <use xlink:href="#DejaVuSans-34"/>
      </g>
     </g>
    </g>
    <g id="text_19">
     <!-- x bins [$V$] -->
     <g transform="translate(341.242187 340.520072) scale(0.1 -0.1)">
      <use xlink:href="#DejaVuSans-78" transform="translate(0 0.015625)"/>
      <use xlink:href="#DejaVuSans-20" transform="translate(59.179688 0.015625)"/>
      <use xlink:href="#DejaVuSans-62" transform="translate(90.966797 0.015625)"/>
      <use xlink:href="#DejaVuSans-69" transform="translate(154.443359 0.015625)"/>
      <use xlink:href="#DejaVuSans-6e" transform="translate(182.226562 0.015625)"/>
      <use xlink:href="#DejaVuSans-73" transform="translate(245.605469 0.015625)"/>
      <use xlink:href="#DejaVuSans-20" transform="translate(297.705078 0.015625)"/>
      <use xlink:href="#DejaVuSans-5b" transform="translate(329.492188 0.015625)"/>
      <use xlink:href="#DejaVuSans-Oblique-56" transform="translate(368.505859 0.015625)"/>
      <use xlink:href="#DejaVuSans-5d" transform="translate(436.914062 0.015625)"/>
     </g>
    </g>
   </g>
   <g id="matplotlib.axis_4">
    <g id="ytick_7">
     <g id="line2d_20">
      <g>
       <use xlink:href="#mc1c478fe09" x="272.284615" y="312.24351" style="stroke: #000000; stroke-width: 0.8"/>
      </g>
     </g>
     <g id="text_20">
      <!-- 0.0 -->
      <g transform="translate(249.38149 316.042729) scale(0.1 -0.1)">
       <defs>
        <path id="DejaVuSans-2e" d="M 684 794 
L 1344 794 
L 1344 0 
L 684 0 
L 684 794 
z
" transform="scale(0.015625)"/>
       </defs>
       <use xlink:href="#DejaVuSans-30"/>
       <use xlink:href="#DejaVuSans-2e" x="63.623047"/>
       <use xlink:href="#DejaVuSans-30" x="95.410156"/>
      </g>
     </g>
    </g>
    <g id="ytick_8">
     <g id="line2d_21">
      <g>
       <use xlink:href="#mc1c478fe09" x="272.284615" y="247.254429" style="stroke: #000000; stroke-width: 0.8"/>
      </g>
     </g>
     <g id="text_21">
      <!-- 0.1 -->
      <g transform="translate(249.38149 251.053647) scale(0.1 -0.1)">
       <use xlink:href="#DejaVuSans-30"/>
       <use xlink:href="#DejaVuSans-2e" x="63.623047"/>
       <use xlink:href="#DejaVuSans-31" x="95.410156"/>
      </g>
     </g>
    </g>
    <g id="ytick_9">
     <g id="line2d_22">
      <g>
       <use xlink:href="#mc1c478fe09" x="272.284615" y="182.265347" style="stroke: #000000; stroke-width: 0.8"/>
      </g>
     </g>
     <g id="text_22">
      <!-- 0.2 -->
      <g transform="translate(249.38149 186.064566) scale(0.1 -0.1)">
       <use xlink:href="#DejaVuSans-30"/>
       <use xlink:href="#DejaVuSans-2e" x="63.623047"/>
       <use xlink:href="#DejaVuSans-32" x="95.410156"/>
      </g>
     </g>
    </g>
    <g id="ytick_10">
     <g id="line2d_23">
      <g>
       <use xlink:href="#mc1c478fe09" x="272.284615" y="117.276266" style="stroke: #000000; stroke-width: 0.8"/>
      </g>
     </g>
     <g id="text_23">
      <!-- 0.3 -->
      <g transform="translate(249.38149 121.075485) scale(0.1 -0.1)">
       <use xlink:href="#DejaVuSans-30"/>
       <use xlink:href="#DejaVuSans-2e" x="63.623047"/>
       <use xlink:href="#DejaVuSans-33" x="95.410156"/>
      </g>
     </g>
    </g>
    <g id="ytick_11">
     <g id="line2d_24">
      <g>
       <use xlink:href="#mc1c478fe09" x="272.284615" y="52.287185" style="stroke: #000000; stroke-width: 0.8"/>
      </g>
     </g>
     <g id="text_24">
      <!-- 0.4 -->
      <g transform="translate(249.38149 56.086404) scale(0.1 -0.1)">
       <use xlink:href="#DejaVuSans-30"/>
       <use xlink:href="#DejaVuSans-2e" x="63.623047"/>
       <use xlink:href="#DejaVuSans-34" x="95.410156"/>
      </g>
     </g>
    </g>
    <g id="text_25">
     <!-- Probability density [$V^{-1}$] -->
     <g transform="translate(243.28149 219.856805) rotate(-90) scale(0.1 -0.1)">
      <defs>
       <path id="DejaVuSans-50" d="M 1259 4147 
L 1259 2394 
L 2053 2394 
Q 2494 2394 2734 2622 
Q 2975 2850 2975 3272 
Q 2975 3691 2734 3919 
Q 2494 4147 2053 4147 
L 1259 4147 
z
M 628 4666 
L 2053 4666 
Q 2838 4666 3239 4311 
Q 3641 3956 3641 3272 
Q 3641 2581 3239 2228 
Q 2838 1875 2053 1875 
L 1259 1875 
L 1259 0 
L 628 0 
L 628 4666 
z
" transform="scale(0.015625)"/>
       <path id="DejaVuSans-61" d="M 2194 1759 
Q 1497 1759 1228 1600 
Q 959 1441 959 1056 
Q 959 750 1161 570 
Q 1363 391 1709 391 
Q 2188 391 2477 730 
Q 2766 1069 2766 1631 
L 2766 1759 
L 2194 1759 
z
M 3341 1997 
L 3341 0 
L 2766 0 
L 2766 531 
Q 2569 213 2275 61 
Q 1981 -91 1556 -91 
Q 1019 -91 701 211 
Q 384 513 384 1019 
Q 384 1609 779 1909 
Q 1175 2209 1959 2209 
L 2766 2209 
L 2766 2266 
Q 2766 2663 2505 2880 
Q 2244 3097 1772 3097 
Q 1472 3097 1187 3025 
Q 903 2953 641 2809 
L 641 3341 
Q 956 3463 1253 3523 
Q 1550 3584 1831 3584 
Q 2591 3584 2966 3190 
Q 3341 2797 3341 1997 
z
" transform="scale(0.015625)"/>
       <path id="DejaVuSans-6c" d="M 603 4863 
L 1178 4863 
L 1178 0 
L 603 0 
L 603 4863 
z
" transform="scale(0.015625)"/>
       <path id="DejaVuSans-79" d="M 2059 -325 
Q 1816 -950 1584 -1140 
Q 1353 -1331 966 -1331 
L 506 -1331 
L 506 -850 
L 844 -850 
Q 1081 -850 1212 -737 
Q 1344 -625 1503 -206 
L 1606 56 
L 191 3500 
L 800 3500 
L 1894 763 
L 2988 3500 
L 3597 3500 
L 2059 -325 
z
" transform="scale(0.015625)"/>
       <path id="DejaVuSans-64" d="M 2906 2969 
L 2906 4863 
L 3481 4863 
L 3481 0 
L 2906 0 
L 2906 525 
Q 2725 213 2448 61 
Q 2172 -91 1784 -91 
Q 1150 -91 751 415 
Q 353 922 353 1747 
Q 353 2572 751 3078 
Q 1150 3584 1784 3584 
Q 2172 3584 2448 3432 
Q 2725 3281 2906 2969 
z
M 947 1747 
Q 947 1113 1208 752 
Q 1469 391 1925 391 
Q 2381 391 2643 752 
Q 2906 1113 2906 1747 
Q 2906 2381 2643 2742 
Q 2381 3103 1925 3103 
Q 1469 3103 1208 2742 
Q 947 2381 947 1747 
z
" transform="scale(0.015625)"/>
      </defs>
      <use xlink:href="#DejaVuSans-50" transform="translate(0 0.684375)"/>
      <use xlink:href="#DejaVuSans-72" transform="translate(60.302734 0.684375)"/>
      <use xlink:href="#DejaVuSans-6f" transform="translate(101.416016 0.684375)"/>
      <use xlink:href="#DejaVuSans-62" transform="translate(162.597656 0.684375)"/>
      <use xlink:href="#DejaVuSans-61" transform="translate(226.074219 0.684375)"/>
      <use xlink:href="#DejaVuSans-62" transform="translate(287.353516 0.684375)"/>
      <use xlink:href="#DejaVuSans-69" transform="translate(350.830078 0.684375)"/>
      <use xlink:href="#DejaVuSans-6c" transform="translate(378.613281 0.684375)"/>
      <use xlink:href="#DejaVuSans-69" transform="translate(406.396484 0.684375)"/>
      <use xlink:href="#DejaVuSans-74" transform="translate(434.179688 0.684375)"/>
      <use xlink:href="#DejaVuSans-79" transform="translate(473.388672 0.684375)"/>
      <use xlink:href="#DejaVuSans-20" transform="translate(532.568359 0.684375)"/>
      <use xlink:href="#DejaVuSans-64" transform="translate(564.355469 0.684375)"/>
      <use xlink:href="#DejaVuSans-65" transform="translate(627.832031 0.684375)"/>
      <use xlink:href="#DejaVuSans-6e" transform="translate(689.355469 0.684375)"/>
      <use xlink:href="#DejaVuSans-73" transform="translate(752.734375 0.684375)"/>
      <use xlink:href="#DejaVuSans-69" transform="translate(804.833984 0.684375)"/>
      <use xlink:href="#DejaVuSans-74" transform="translate(832.617188 0.684375)"/>
      <use xlink:href="#DejaVuSans-79" transform="translate(871.826172 0.684375)"/>
      <use xlink:href="#DejaVuSans-20" transform="translate(931.005859 0.684375)"/>
      <use xlink:href="#DejaVuSans-5b" transform="translate(962.792969 0.684375)"/>
      <use xlink:href="#DejaVuSans-Oblique-56" transform="translate(1001.806641 0.684375)"/>
      <use xlink:href="#DejaVuSans-2212" transform="translate(1077.231615 38.965625) scale(0.7)"/>
      <use xlink:href="#DejaVuSans-31" transform="translate(1135.883958 38.965625) scale(0.7)"/>
      <use xlink:href="#DejaVuSans-5d" transform="translate(1183.154466 0.684375)"/>
     </g>
    </g>
   </g>
   <g id="line2d_25">
    <path d="M 280.717122 312.156535 
L 282.851933 312.114406 
L 284.986745 312.053776 
L 287.121557 311.967449 
L 289.256369 311.845841 
L 291.391181 311.676362 
L 293.525992 311.442702 
L 295.660804 311.124028 
L 297.795616 310.694113 
L 299.930428 310.120434 
L 302.06524 309.363292 
L 304.200051 308.375014 
L 306.334863 307.099331 
L 308.469675 305.47104 
L 310.604487 303.416063 
L 312.739299 300.852029 
L 314.87411 297.689511 
L 317.008922 293.834028 
L 319.143734 289.188898 
L 321.278546 283.658975 
L 323.413357 277.155277 
L 325.548169 269.600395 
L 327.682981 260.934527 
L 329.817793 251.121879 
L 331.952605 240.157079 
L 334.087416 228.071214 
L 336.222228 214.937006 
L 338.35704 200.872636 
L 340.491852 186.043777 
L 342.626664 170.663382 
L 344.761475 154.988959 
L 346.896287 139.317151 
L 349.031099 123.975631 
L 351.165911 109.312547 
L 353.300723 95.683902 
L 355.435534 83.439489 
L 357.570346 72.908129 
L 359.705158 64.383073 
L 361.83997 58.108456 
L 363.974782 54.267696 
L 366.109593 52.974587 
L 368.244405 54.267696 
L 370.379217 58.108456 
L 372.514029 64.383073 
L 374.648841 72.908129 
L 376.783652 83.439489 
L 378.918464 95.683902 
L 381.053276 109.312547 
L 383.188088 123.975631 
L 385.3229 139.317151 
L 387.457711 154.988959 
L 389.592523 170.663382 
L 391.727335 186.043777 
L 393.862147 200.872636 
L 395.996959 214.937006 
L 398.13177 228.071214 
L 400.266582 240.157079 
L 402.401394 251.121879 
L 404.536206 260.934527 
L 406.671018 269.600395 
L 408.805829 277.155277 
L 410.940641 283.658975 
L 413.075453 289.188898 
L 415.210265 293.834028 
L 417.345076 297.689511 
L 419.479888 300.852029 
L 421.6147 303.416063 
L 423.749512 305.47104 
L 425.884324 307.099331 
L 428.019135 308.375014 
L 430.153947 309.363292 
L 432.288759 310.120434 
L 434.423571 310.694113 
L 436.558383 311.124028 
L 438.693194 311.442702 
L 440.828006 311.676362 
L 442.962818 311.845841 
L 445.09763 311.967449 
L 447.232442 312.053776 
L 449.367253 312.114406 
" clip-path="url(#p2b15c3a0e5)" style="fill: none; stroke-dasharray: 5.55,2.4; stroke-dashoffset: 0; stroke: #000000; stroke-width: 1.5"/>
   </g>
   <g id="patch_11">
    <path d="M 280.717122 312.24351 
L 289.256369 312.24351 
L 289.256369 305.744602 
L 293.525992 305.744602 
L 293.525992 312.24351 
L 297.795616 312.24351 
L 297.795616 305.744602 
L 302.06524 305.744602 
L 302.06524 312.24351 
L 308.469675 312.24351 
L 308.469675 299.245694 
L 310.604487 299.245694 
L 310.604487 312.24351 
L 312.739299 312.24351 
L 312.739299 292.746786 
L 314.87411 292.746786 
L 314.87411 279.748969 
L 317.008922 279.748969 
L 317.008922 292.746786 
L 321.278546 292.746786 
L 321.278546 286.247877 
L 323.413357 286.247877 
L 323.413357 253.753337 
L 325.548169 253.753337 
L 325.548169 247.254429 
L 327.682981 247.254429 
L 327.682981 234.256612 
L 329.817793 234.256612 
L 329.817793 247.254429 
L 331.952605 247.254429 
L 331.952605 227.757704 
L 334.087416 227.757704 
L 334.087416 208.26098 
L 336.222228 208.26098 
L 336.222228 188.764256 
L 338.35704 188.764256 
L 338.35704 136.772991 
L 340.491852 136.772991 
L 340.491852 195.263164 
L 342.626664 195.263164 
L 342.626664 188.764256 
L 346.896287 188.764256 
L 346.896287 143.271899 
L 349.031099 143.271899 
L 349.031099 136.772991 
L 351.165911 136.772991 
L 351.165911 45.788277 
L 353.300723 45.788277 
L 353.300723 52.287185 
L 355.435534 52.287185 
L 355.435534 97.779542 
L 357.570346 97.779542 
L 357.570346 84.781725 
L 359.705158 84.781725 
L 359.705158 110.777358 
L 361.83997 110.777358 
L 361.83997 19.792644 
L 366.109593 19.792644 
L 366.109593 65.285001 
L 368.244405 65.285001 
L 368.244405 39.289369 
L 370.379217 39.289369 
L 370.379217 71.783909 
L 372.514029 71.783909 
L 372.514029 65.285001 
L 374.648841 65.285001 
L 374.648841 195.263164 
L 376.783652 195.263164 
L 376.783652 130.274082 
L 378.918464 130.274082 
L 378.918464 117.276266 
L 381.053276 117.276266 
L 381.053276 84.781725 
L 383.188088 84.781725 
L 383.188088 130.274082 
L 385.3229 130.274082 
L 385.3229 143.271899 
L 387.457711 143.271899 
L 387.457711 182.265347 
L 389.592523 182.265347 
L 389.592523 156.269715 
L 391.727335 156.269715 
L 391.727335 188.764256 
L 393.862147 188.764256 
L 393.862147 156.269715 
L 395.996959 156.269715 
L 395.996959 227.757704 
L 398.13177 227.757704 
L 398.13177 253.753337 
L 400.266582 253.753337 
L 400.266582 227.757704 
L 402.401394 227.757704 
L 402.401394 273.250061 
L 404.536206 273.250061 
L 404.536206 299.245694 
L 406.671018 299.245694 
L 406.671018 279.748969 
L 408.805829 279.748969 
L 408.805829 266.751153 
L 410.940641 266.751153 
L 410.940641 299.245694 
L 413.075453 299.245694 
L 413.075453 292.746786 
L 417.345076 292.746786 
L 417.345076 286.247877 
L 419.479888 286.247877 
L 419.479888 299.245694 
L 423.749512 299.245694 
L 423.749512 305.744602 
L 425.884324 305.744602 
L 425.884324 312.24351 
L 430.153947 312.24351 
L 430.153947 305.744602 
L 432.288759 305.744602 
L 432.288759 312.24351 
L 434.423571 312.24351 
L 434.423571 305.744602 
L 436.558383 305.744602 
L 436.558383 312.24351 
L 449.367253 312.24351 
L 449.367253 312.24351 
" clip-path="url(#p2b15c3a0e5)" style="fill: none; stroke: #1f77b4; stroke-linejoin: miter"/>
   </g>
   <g id="patch_12">
    <path d="M 280.717122 312.24351 
L 280.717122 312.24351 
L 289.256369 312.24351 
L 289.256369 308.994056 
L 297.795616 308.994056 
L 297.795616 308.994056 
L 306.334863 308.994056 
L 306.334863 304.119875 
L 314.87411 304.119875 
L 314.87411 287.872605 
L 323.413357 287.872605 
L 323.413357 245.629702 
L 331.952605 245.629702 
L 331.952605 190.388983 
L 340.491852 190.388983 
L 340.491852 179.015893 
L 349.031099 179.015893 
L 349.031099 83.156998 
L 357.570346 83.156998 
L 357.570346 58.786093 
L 366.109593 58.786093 
L 366.109593 60.41082 
L 374.648841 60.41082 
L 374.648841 131.898809 
L 383.188088 131.898809 
L 383.188088 153.020261 
L 391.727335 153.020261 
L 391.727335 206.636253 
L 400.266582 206.636253 
L 400.266582 270.000607 
L 408.805829 270.000607 
L 408.805829 287.872605 
L 417.345076 287.872605 
L 417.345076 297.620967 
L 425.884324 297.620967 
L 425.884324 310.618783 
L 434.423571 310.618783 
L 434.423571 310.618783 
L 442.962818 310.618783 
L 442.962818 312.24351 
" clip-path="url(#p2b15c3a0e5)" style="fill: none; stroke: #ff7f0e; stroke-linejoin: miter"/>
   </g>
   <g id="patch_13">
    <path d="M 280.717122 312.24351 
L 280.717122 310.075039 
L 306.334863 310.075039 
L 306.334863 279.174324 
L 331.952605 279.174324 
L 331.952605 150.692407 
L 357.570346 150.692407 
L 357.570346 83.4698 
L 383.188088 83.4698 
L 383.188088 209.783247 
L 408.805829 209.783247 
L 408.805829 298.690565 
L 434.423571 298.690565 
L 434.423571 312.24351 
" clip-path="url(#p2b15c3a0e5)" style="fill: none; stroke: #2ca02c; stroke-linejoin: miter"/>
   </g>
   <g id="patch_14">
    <path d="M 272.284615 312.24351 
L 272.284615 5.170101 
" style="fill: none; stroke: #000000; stroke-width: 0.8; stroke-linejoin: miter; stroke-linecap: square"/>
   </g>
   <g id="patch_15">
    <path d="M 457.79976 312.24351 
L 457.79976 5.170101 
" style="fill: none; stroke: #000000; stroke-width: 0.8; stroke-linejoin: miter; stroke-linecap: square"/>
   </g>
   <g id="patch_16">
    <path d="M 272.284615 312.24351 
L 457.79976 312.24351 
" style="fill: none; stroke: #000000; stroke-width: 0.8; stroke-linejoin: miter; stroke-linecap: square"/>
   </g>
   <g id="patch_17">
    <path d="M 272.284615 5.170101 
L 457.79976 5.170101 
" style="fill: none; stroke: #000000; stroke-width: 0.8; stroke-linejoin: miter; stroke-linecap: square"/>
   </g>
   <g id="legend_1">
    <g id="patch_18">
     <path d="M 399.063322 74.584738 
L 451.96876 74.584738 
Q 453.63476 74.584738 453.63476 72.918738 
L 453.63476 11.001101 
Q 453.63476 9.335101 451.96876 9.335101 
L 399.063322 9.335101 
Q 397.397322 9.335101 397.397322 11.001101 
L 397.397322 72.918738 
Q 397.397322 74.584738 399.063322 74.584738 
z
" style="fill: #ffffff; opacity: 0.8; stroke: #cccccc; stroke-linejoin: miter"/>
    </g>
    <g id="text_26">
     <!-- bin width: -->
     <g transform="translate(400.729322 20.265538) scale(0.1 -0.1)">
      <defs>
       <path id="DejaVuSans-77" d="M 269 3500 
L 844 3500 
L 1563 769 
L 2278 3500 
L 2956 3500 
L 3675 769 
L 4391 3500 
L 4966 3500 
L 4050 0 
L 3372 0 
L 2619 2869 
L 1863 0 
L 1184 0 
L 269 3500 
z
" transform="scale(0.015625)"/>
       <path id="DejaVuSans-68" d="M 3513 2113 
L 3513 0 
L 2938 0 
L 2938 2094 
Q 2938 2591 2744 2837 
Q 2550 3084 2163 3084 
Q 1697 3084 1428 2787 
Q 1159 2491 1159 1978 
L 1159 0 
L 581 0 
L 581 4863 
L 1159 4863 
L 1159 2956 
Q 1366 3272 1645 3428 
Q 1925 3584 2291 3584 
Q 2894 3584 3203 3211 
Q 3513 2838 3513 2113 
z
" transform="scale(0.015625)"/>
       <path id="DejaVuSans-3a" d="M 750 794 
L 1409 794 
L 1409 0 
L 750 0 
L 750 794 
z
M 750 3309 
L 1409 3309 
L 1409 2516 
L 750 2516 
L 750 3309 
z
" transform="scale(0.015625)"/>
      </defs>
      <use xlink:href="#DejaVuSans-62"/>
      <use xlink:href="#DejaVuSans-69" x="63.476562"/>
      <use xlink:href="#DejaVuSans-6e" x="91.259766"/>
      <use xlink:href="#DejaVuSans-20" x="154.638672"/>
      <use xlink:href="#DejaVuSans-77" x="186.425781"/>
      <use xlink:href="#DejaVuSans-69" x="268.212891"/>
      <use xlink:href="#DejaVuSans-64" x="295.996094"/>
      <use xlink:href="#DejaVuSans-74" x="359.472656"/>
      <use xlink:href="#DejaVuSans-68" x="398.681641"/>
      <use xlink:href="#DejaVuSans-3a" x="462.060547"/>
     </g>
    </g>
    <g id="line2d_26">
     <path d="M 404.524441 29.924224 
L 412.854441 29.924224 
L 421.184441 29.924224 
" style="fill: none; stroke-dasharray: 5.55,2.4; stroke-dashoffset: 0; stroke: #000000; stroke-width: 1.5"/>
    </g>
    <g id="text_27">
     <!-- $f_X(x)$ -->
     <g transform="translate(427.848441 32.839724) scale(0.0833 -0.0833)">
      <defs>
       <path id="DejaVuSans-Oblique-66" d="M 3059 4863 
L 2969 4384 
L 2419 4384 
Q 2106 4384 1964 4261 
Q 1822 4138 1753 3809 
L 1691 3500 
L 2638 3500 
L 2553 3053 
L 1606 3053 
L 1013 0 
L 434 0 
L 1031 3053 
L 481 3053 
L 563 3500 
L 1113 3500 
L 1159 3744 
Q 1278 4363 1576 4613 
Q 1875 4863 2516 4863 
L 3059 4863 
z
" transform="scale(0.015625)"/>
       <path id="DejaVuSans-Oblique-58" d="M 878 4666 
L 1516 4666 
L 2316 2981 
L 3763 4666 
L 4500 4666 
L 2578 2438 
L 3738 0 
L 3103 0 
L 2163 1966 
L 459 0 
L -275 0 
L 1906 2509 
L 878 4666 
z
" transform="scale(0.015625)"/>
       <path id="DejaVuSans-28" d="M 1984 4856 
Q 1566 4138 1362 3434 
Q 1159 2731 1159 2009 
Q 1159 1288 1364 580 
Q 1569 -128 1984 -844 
L 1484 -844 
Q 1016 -109 783 600 
Q 550 1309 550 2009 
Q 550 2706 781 3412 
Q 1013 4119 1484 4856 
L 1984 4856 
z
" transform="scale(0.015625)"/>
       <path id="DejaVuSans-Oblique-78" d="M 3841 3500 
L 2234 1784 
L 3219 0 
L 2559 0 
L 1819 1388 
L 531 0 
L -166 0 
L 1556 1844 
L 641 3500 
L 1300 3500 
L 1972 2234 
L 3144 3500 
L 3841 3500 
z
" transform="scale(0.015625)"/>
       <path id="DejaVuSans-29" d="M 513 4856 
L 1013 4856 
Q 1481 4119 1714 3412 
Q 1947 2706 1947 2009 
Q 1947 1309 1714 600 
Q 1481 -109 1013 -844 
L 513 -844 
Q 928 -128 1133 580 
Q 1338 1288 1338 2009 
Q 1338 2731 1133 3434 
Q 928 4138 513 4856 
z
" transform="scale(0.015625)"/>
      </defs>
      <use xlink:href="#DejaVuSans-Oblique-66" transform="translate(0 0.015625)"/>
      <use xlink:href="#DejaVuSans-Oblique-58" transform="translate(35.205078 -16.390625) scale(0.7)"/>
      <use xlink:href="#DejaVuSans-28" transform="translate(85.893555 0.015625)"/>
      <use xlink:href="#DejaVuSans-Oblique-78" transform="translate(124.907227 0.015625)"/>
      <use xlink:href="#DejaVuSans-29" transform="translate(184.086914 0.015625)"/>
     </g>
    </g>
    <g id="patch_19">
     <path d="M 404.524441 45.066602 
L 421.184441 45.066602 
L 421.184441 39.235602 
L 404.524441 39.235602 
L 404.524441 45.066602 
z
" style="fill: none; stroke: #1f77b4; stroke-linejoin: miter"/>
    </g>
    <g id="text_28">
     <!-- 0.1 -->
     <g transform="translate(427.848441 45.066602) scale(0.0833 -0.0833)">
      <use xlink:href="#DejaVuSans-30"/>
      <use xlink:href="#DejaVuSans-2e" x="63.623047"/>
      <use xlink:href="#DejaVuSans-31" x="95.410156"/>
     </g>
    </g>
    <g id="patch_20">
     <path d="M 404.524441 57.293481 
L 421.184441 57.293481 
L 421.184441 51.462481 
L 404.524441 51.462481 
L 404.524441 57.293481 
z
" style="fill: none; stroke: #ff7f0e; stroke-linejoin: miter"/>
    </g>
    <g id="text_29">
     <!-- 0.4 -->
     <g transform="translate(427.848441 57.293481) scale(0.0833 -0.0833)">
      <use xlink:href="#DejaVuSans-30"/>
      <use xlink:href="#DejaVuSans-2e" x="63.623047"/>
      <use xlink:href="#DejaVuSans-34" x="95.410156"/>
     </g>
    </g>
    <g id="patch_21">
     <path d="M 404.524441 69.520359 
L 421.184441 69.520359 
L 421.184441 63.689359 
L 404.524441 63.689359 
L 404.524441 69.520359 
z
" style="fill: none; stroke: #2ca02c; stroke-linejoin: miter"/>
    </g>
    <g id="text_30">
     <!-- 1.2 -->
     <g transform="translate(427.848441 69.520359) scale(0.0833 -0.0833)">
      <use xlink:href="#DejaVuSans-31"/>
      <use xlink:href="#DejaVuSans-2e" x="63.623047"/>
      <use xlink:href="#DejaVuSans-32" x="95.410156"/>
     </g>
    </g>
   </g>
  </g>
 </g>
 <defs>
  <clipPath id="p2eed167902">
   <rect x="42.765865" y="5.170101" width="185.515145" height="307.073409"/>
  </clipPath>
  <clipPath id="p2b15c3a0e5">
   <rect x="272.284615" y="5.170101" width="185.515145" height="307.073409"/>
  </clipPath>
 </defs>
</svg>
